<svg width="224" height="120" viewBox="0 0 224 120" fill="none" xmlns="http://www.w3.org/2000/svg">
<mask id="mask0" mask-type="alpha" maskUnits="userSpaceOnUse" x="0" y="0" width="221" height="120">
<rect width="221" height="120" fill="#C4C4C4"/>
</mask>
<g mask="url(#mask0)">
<path d="M13.928 83V37.432H30.696C35.688 37.432 39.9333 38.328 43.432 40.12C46.9307 41.912 49.5973 44.5147 51.432 47.928C53.3093 51.2987 54.248 55.3733 54.248 60.152C54.248 64.9733 53.3093 69.0907 51.432 72.504C49.5973 75.9173 46.9093 78.52 43.368 80.312C39.8693 82.104 35.6453 83 30.696 83H13.928ZM22.184 76.28H30.184C35.432 76.28 39.3573 74.936 41.96 72.248C44.6053 69.56 45.928 65.528 45.928 60.152C45.928 49.4853 40.68 44.152 30.184 44.152H22.184V76.28ZM62.6155 83V37.432H93.0795V43.896H70.6795V56.568H91.7995V63.096H70.6795V76.536H93.0795V83H62.6155ZM115.477 83.512C113.13 83.512 110.89 83.32 108.757 82.936C106.624 82.5093 104.618 81.8907 102.741 81.08C100.906 80.2693 99.285 79.288 97.877 78.136L100.629 72.12C102.933 73.8267 105.28 75.064 107.669 75.832C110.058 76.6 112.682 76.984 115.541 76.984C118.698 76.984 121.13 76.4293 122.837 75.32C124.586 74.2107 125.461 72.6533 125.461 70.648C125.461 69.4533 125.077 68.472 124.309 67.704C123.541 66.8933 122.389 66.2107 120.853 65.656C119.317 65.1013 117.418 64.568 115.157 64.056C112.469 63.544 110.101 62.9253 108.053 62.2C106.005 61.432 104.298 60.536 102.933 59.512C101.568 58.488 100.522 57.272 99.797 55.864C99.1143 54.4133 98.773 52.7067 98.773 50.744C98.773 48.056 99.4983 45.6667 100.949 43.576C102.4 41.4853 104.426 39.864 107.029 38.712C109.674 37.5173 112.768 36.92 116.309 36.92C118.442 36.92 120.512 37.1333 122.517 37.56C124.565 37.9867 126.442 38.6053 128.149 39.416C129.856 40.184 131.328 41.144 132.565 42.296L129.749 48.312C127.701 46.648 125.568 45.432 123.349 44.664C121.13 43.8533 118.805 43.448 116.373 43.448C113.429 43.448 111.104 44.0453 109.397 45.24C107.69 46.4347 106.837 48.0987 106.837 50.232C106.837 51.4693 107.178 52.4933 107.861 53.304C108.586 54.1147 109.674 54.7973 111.125 55.352C112.618 55.9067 114.517 56.4613 116.821 57.016C119.466 57.5707 121.813 58.2107 123.861 58.936C125.952 59.6613 127.722 60.536 129.173 61.56C130.624 62.5413 131.712 63.736 132.437 65.144C133.205 66.5093 133.589 68.152 133.589 70.072C133.589 72.8027 132.864 75.192 131.413 77.24C129.962 79.2453 127.872 80.8027 125.141 81.912C122.453 82.9787 119.232 83.512 115.477 83.512ZM141.303 83V37.432H149.559V83H141.303ZM180.931 83.512C176.195 83.512 172.099 82.5947 168.643 80.76C165.229 78.8827 162.605 76.216 160.771 72.76C158.979 69.2613 158.083 65.0587 158.083 60.152C158.083 55.3307 158.979 51.192 160.771 47.736C162.605 44.2373 165.208 41.5707 168.579 39.736C171.949 37.8587 175.939 36.92 180.547 36.92C183.747 36.92 186.733 37.368 189.507 38.264C192.28 39.16 194.627 40.4827 196.547 42.232L193.731 48.248C191.555 46.584 189.443 45.3893 187.395 44.664C185.347 43.896 183.107 43.512 180.675 43.512C176.024 43.512 172.483 44.92 170.051 47.736C167.661 50.552 166.467 54.6907 166.467 60.152C166.467 65.7413 167.704 69.9653 170.179 72.824C172.653 75.64 176.344 77.048 181.251 77.048C183.128 77.048 184.963 76.8987 186.755 76.6C188.589 76.2587 190.317 75.7893 191.939 75.192L190.019 78.264V64.312H180.227V58.36H197.507V80.248C196.099 80.9733 194.499 81.5707 192.707 82.04C190.915 82.5093 189.016 82.872 187.011 83.128C185.005 83.384 182.979 83.512 180.931 83.512ZM206.866 83V37.432H213.01L239.25 71.544L237.522 72.44V37.432H245.266V83H239.058L212.946 49.016L214.61 47.992V83H206.866Z" fill="white"/>
</g>
<rect x="224" y="27" width="64" height="6" transform="rotate(90 224 27)" fill="#874AAD"/>
</svg>
