<svg width="32" height="32" viewBox="0 0 32 32" fill="none" xmlns="http://www.w3.org/2000/svg">
<path d="M17.3773 23.8191C19.3331 23.8191 21.1153 23.1466 22.4651 21.9331L23.4073 21.0932L27.6521 25.2681L26.6416 26.2119C24.2132 28.4683 20.9138 29.7143 17.3758 29.7143C9.76192 29.7143 4 23.923 4 16.2735C4 8.59144 9.6271 3 17.3758 3C20.8487 3 24.114 4.24599 26.5734 6.46676L27.6195 7.41055L23.4399 11.5886L22.4992 10.7797C21.1153 9.56623 19.299 8.92619 17.3773 8.92619C12.9652 8.92619 9.89984 11.959 9.89984 16.306C9.89984 20.653 13.066 23.8191 17.3773 23.8191Z" fill="#874AAD"/>
<path d="M17.1727 11.8926C18.3614 11.8926 19.5014 12.3648 20.3419 13.2053C21.1824 14.0458 21.6546 15.1858 21.6546 16.3744C21.6546 17.5631 21.1824 18.703 20.3419 19.5435C19.5014 20.3841 18.3614 20.8562 17.1727 20.8562C15.9841 20.8562 14.8441 20.3841 14.0036 19.5435C13.1631 18.703 12.6909 17.5631 12.6909 16.3744C12.6909 15.1858 13.1631 14.0458 14.0036 13.2053C14.8441 12.3648 15.9841 11.8926 17.1727 11.8926" fill="#FF3D2E"/>
</svg>
