<svg width="120" height="120" viewBox="0 0 120 120" fill="none" xmlns="http://www.w3.org/2000/svg">
<path d="M95 21H25C22.5 21 20 23.4306 20 25.8611V80.5493C20 82.9798 22.5 85.4104 25 85.4104H50V90.2715C50 93.647 45.496 95.1326 40 95.1326V98.7778H80V95.1313C74.5027 95.1313 70 93.6457 70 90.2702V85.4091H95C97.5 85.4091 100 82.9785 100 80.548V25.8611C100 23.4306 97.5 21 95 21ZM97.3333 80.5493C97.3333 81.5461 96.024 82.8178 95 82.8178H25C23.9747 82.8178 22.6667 81.5461 22.6667 80.5493V75.6881H97.3333V80.5493Z" fill="white"/>
</svg>
