<svg width="66" height="32" viewBox="0 0 66 32" fill="none" xmlns="http://www.w3.org/2000/svg">
<g clip-path="url(#clip0)">
<path d="M4 5.844H4.4C5.46 5.844 9.01 5.758 10.33 5.758C18.347 5.758 21.583 10.368 21.583 15.695C21.583 21.309 17.746 25.947 10.1 25.947C9.04 25.947 6.406 25.89 4.488 25.89H4V5.844ZM8.582 10.14V21.595C9.184 21.653 9.584 21.653 10.242 21.653C14.195 21.653 16.715 19.505 16.715 15.695C16.715 12 13.995 10.053 10.272 10.053C9.785 10.053 9.155 10.053 8.582 10.139V10.14ZM33.277 5.5C39.377 5.5 43.929 9.48 43.929 15.867C43.929 21.939 39.375 26.235 33.276 26.235C27.176 26.235 22.623 22.255 22.623 15.867C22.624 10.053 26.89 5.5 33.277 5.5ZM33.277 21.938C37.087 21.938 39.061 19.246 39.061 15.866C39.061 12.2 36.513 9.794 33.278 9.794C29.956 9.794 27.493 12.2 27.493 15.866C27.493 19.304 30.071 21.938 33.278 21.938H33.277ZM62 17.614C62 23.742 58.105 26.234 53.81 26.234C48.656 26.234 45.077 23.284 45.077 17.414V5.844H49.659V16.44C49.659 19.562 50.602 21.94 53.809 21.94C56.587 21.94 57.417 19.906 57.417 16.698V5.844H62V17.614V17.614Z" fill="#874AAD"/>
</g>
<defs>
<clipPath id="clip0">
<rect width="58" height="21" fill="white" transform="translate(4 5.5)"/>
</clipPath>
</defs>
</svg>
