<svg width="120" height="120" viewBox="0 0 120 120" fill="none" xmlns="http://www.w3.org/2000/svg">
<path d="M14.5962 75.7066L23.2363 86.6343L92.4351 31.921L83.795 20.9933L14.5962 75.7066Z" fill="white"/>
<path d="M97.1061 15.5064L100.819 20.2126C102.187 21.9376 101.887 24.4314 100.162 25.8001L93.9936 30.6939L85.3499 19.7626L91.5186 14.8689C93.2436 13.5001 95.7561 13.7814 97.1061 15.5064Z" fill="white"/>
<path d="M13.181 89.6254L21.6747 87.8629L13.031 76.9316L9.35596 84.7879L13.181 89.6254Z" fill="white"/>
<path d="M8.84961 85.8379L6.41211 91.0504L12.0371 89.8691L8.84961 85.8379Z" fill="white"/>
<path fill-rule="evenodd" clip-rule="evenodd" d="M113.587 29.4941L17.4937 105.994H47.4934V98.0818H49.0684V105.994H61.1999V98.0818H62.7749V105.994H74.8874V98.0818H76.4624V105.994H88.5744V98.0818H90.1494V105.994H102.262V98.0818H103.837V105.994H113.569L113.572 93.2796H105.68V91.7046H113.572L113.573 88.6922H109.627V87.1172H113.573L113.574 84.097H109.629V82.522H113.574L113.575 79.493H105.686V77.918H113.576L113.576 74.9061H109.633V73.3311H113.577L113.577 70.3099H109.635V68.7349H113.578L113.579 65.7059H105.672V64.1309H113.579L113.58 61.119H109.638V59.544H113.58L113.581 56.5233H109.64V54.9483H113.581L113.582 51.9197H105.677V50.3447H113.582L113.587 29.4941ZM103.856 50.3441L47.4934 93.2816H103.837L103.856 50.3441ZM99.281 102.037H97.706V105.994H99.281V102.037ZM93.1499 102.037H94.7249V105.994H93.1499V102.037ZM84.0183 102.037H85.5933V105.994H84.0183V102.037ZM81.0186 102.037H79.4436V105.994H81.0186V102.037ZM71.9058 102.037H70.3308V105.994H71.9058V102.037ZM65.7561 102.037H67.3311V105.994H65.7561V102.037ZM56.6247 102.037H58.1997V105.994H56.6247V102.037ZM53.6431 102.037H52.0681V105.994H53.6431V102.037Z" fill="white"/>
</svg>
