<svg width="120" height="120" viewBox="0 0 120 120" fill="none" xmlns="http://www.w3.org/2000/svg">
<path d="M83.4752 23.6069L89.7939 31.5944L23.5314 84.0007L17.2126 76.0132L83.4752 23.6069ZM83.7939 20.9819L14.5876 75.6944L23.2314 86.6257L92.4376 31.9132L83.7939 20.9819Z" fill="black"/>
<path d="M93.9939 15.8818C94.6502 15.8818 95.2501 16.1818 95.6439 16.6881L99.3564 21.3943C99.7127 21.8256 99.8626 22.3881 99.7877 22.9318C99.7127 23.4756 99.4501 23.9818 99.0001 24.3381L94.2939 28.0506L87.9751 20.0631L92.6814 16.3506C93.0564 16.0318 93.5064 15.8818 93.9939 15.8818ZM93.9939 14.0068C93.1314 14.0068 92.2689 14.2881 91.5376 14.8693L85.3689 19.7631L94.0126 30.6943L100.181 25.8006C101.906 24.4318 102.188 21.9381 100.838 20.2131L97.1251 15.5068C96.3189 14.5131 95.1564 14.0068 93.9939 14.0068Z" fill="black"/>
<path d="M13.4251 80.4759L18.3001 86.6446L13.9314 87.5634L11.5314 84.5259L13.4251 80.4759ZM13.0126 76.9321L9.33765 84.7884L13.1814 89.6446L21.6751 87.8821L13.0126 76.9321Z" fill="black"/>
<path d="M8.8501 85.8384L6.4126 91.0509L12.0376 89.8696L8.8501 85.8384Z" fill="black"/>
<path d="M111.713 33.3749L111.694 104.119H22.8564L111.713 33.3749ZM113.588 29.4937L17.4939 105.994H113.569L113.588 29.4937Z" fill="black"/>
<path d="M101.981 54.1322V91.4072H53.0439L101.981 54.1322ZM103.856 50.3447L47.5127 93.2822H103.856V50.3447Z" fill="black"/>
<path d="M103.838 98.0815H102.263V105.994H103.838V98.0815Z" fill="black"/>
<path d="M99.2813 102.039H97.7063V105.995H99.2813V102.039Z" fill="black"/>
<path d="M94.7063 102.039H93.1313V105.995H94.7063V102.039Z" fill="black"/>
<path d="M90.1502 98.0815H88.5752V105.994H90.1502V98.0815Z" fill="black"/>
<path d="M85.5938 102.039H84.0188V105.995H85.5938V102.039Z" fill="black"/>
<path d="M81.0188 102.039H79.4438V105.995H81.0188V102.039Z" fill="black"/>
<path d="M76.4627 98.0815H74.8877V105.994H76.4627V98.0815Z" fill="black"/>
<path d="M71.8875 102.039H70.3125V105.995H71.8875V102.039Z" fill="black"/>
<path d="M67.3313 102.039H65.7563V105.995H67.3313V102.039Z" fill="black"/>
<path d="M62.7564 98.0815H61.1814V105.994H62.7564V98.0815Z" fill="black"/>
<path d="M58.2 102.039H56.625V105.995H58.2V102.039Z" fill="black"/>
<path d="M53.6438 102.039H52.0688V105.995H53.6438V102.039Z" fill="black"/>
<path d="M49.0689 98.0815H47.4939V105.994H49.0689V98.0815Z" fill="black"/>
<path d="M105.673 50.34V51.915H113.586V50.34H105.673Z" fill="black"/>
<path d="M109.636 54.945V56.52H113.592V54.945H109.636Z" fill="black"/>
<path d="M109.634 59.5393V61.1143H113.59V59.5393H109.634Z" fill="black"/>
<path d="M105.668 64.1271V65.7021H113.58V64.1271H105.668Z" fill="black"/>
<path d="M109.631 68.7302V70.3052H113.587V68.7302H109.631Z" fill="black"/>
<path d="M109.629 73.3264V74.9014H113.585V73.3264H109.629Z" fill="black"/>
<path d="M105.681 77.9138V79.4888H113.594V77.9138H105.681Z" fill="black"/>
<path d="M109.625 82.5173V84.0923H113.581V82.5173H109.625Z" fill="black"/>
<path d="M109.624 87.113V88.688H113.58V87.113H109.624Z" fill="black"/>
<path d="M105.676 91.6994V93.2744H113.588V91.6994H105.676Z" fill="black"/>
</svg>
