<svg width="108" height="92" viewBox="0 0 108 92" fill="none" xmlns="http://www.w3.org/2000/svg">
<path d="M8.59617 61.7066L17.2363 72.6343L86.4351 17.921L77.795 6.99333L8.59617 61.7066Z" fill="white"/>
<path d="M91.1061 1.50636L94.8186 6.2126C96.1874 7.9376 95.8874 10.4314 94.1623 11.8001L87.9936 16.6939L79.3499 5.7626L85.5186 0.868854C87.2436 -0.499896 89.7561 -0.218645 91.1061 1.50636Z" fill="white"/>
<path d="M7.18096 75.6254L15.6747 73.8629L7.03096 62.9316L3.35596 70.7879L7.18096 75.6254Z" fill="white"/>
<path d="M2.84961 71.8379L0.412109 77.0504L6.03711 75.8691L2.84961 71.8379Z" fill="white"/>
<path d="M107.587 15.4937L11.4932 91.9937H107.568L107.587 15.4937Z" fill="white"/>
<path d="M97.8557 36.3438L41.4932 79.2812H97.8369L97.8557 36.3438Z" fill="#8147A5" fill-opacity="0"/>
<path d="M97.837 84.0815H96.262V91.994H97.837V84.0815Z" fill="#8147A5" fill-opacity="0" />
<path d="M93.2808 88.0371H91.7058V91.9934H93.2808V88.0371Z" fill="#8147A5" fill-opacity="0"/>
<path d="M88.7247 88.0371H87.1497V91.9934H88.7247V88.0371Z" fill="#8147A5" fill-opacity="0"/>
<path d="M84.1492 84.0815H82.5742V91.994H84.1492V84.0815Z" fill="#8147A5" fill-opacity="0"/>
<path d="M79.5931 88.0371H78.0181V91.9934H79.5931V88.0371Z" fill="#8147A5" fill-opacity="0"/>
<path d="M75.0184 88.0371H73.4434V91.9934H75.0184V88.0371Z" fill="#8147A5" fill-opacity="0"/>
<path d="M70.4622 84.0815H68.8872V91.994H70.4622V84.0815Z" fill="#8147A5" fill-opacity="0"/>
<path d="M65.9056 88.0371H64.3306V91.9934H65.9056V88.0371Z" fill="#8147A5" fill-opacity="0"/>
<path d="M61.3309 88.0371H59.7559V91.9934H61.3309V88.0371Z" fill="#8147A5" fill-opacity="0"/>
<path d="M56.7747 84.0815H55.1997V91.994H56.7747V84.0815Z" fill="#8147A5" fill-opacity="0"/>
<path d="M52.1995 88.0371H50.6245V91.9934H52.1995V88.0371Z" fill="#8147A5" fill-opacity="0"/>
<path d="M47.6429 88.0371H46.0679V91.9934H47.6429V88.0371Z" fill="#8147A5" fill-opacity="0"/>
<path d="M43.0682 84.0815H41.4932V91.994H43.0682V84.0815Z" fill="#8147A5" fill-opacity="0"/>
<path d="M99.6772 36.3444V37.9194H107.59V36.3444H99.6772Z" fill="#8147A5" fill-opacity="1"/>
<path d="M103.64 40.9479V42.5229H107.596V40.9479H103.64Z" fill="#8147A5" fill-opacity="1"/>
<path d="M103.638 45.5437V47.1187H107.594V45.5437H103.638Z" fill="#8147A5" fill-opacity="1"/>
<path d="M99.6719 50.1306V51.7056H107.584V50.1306H99.6719Z" fill="#8147A5" fill-opacity="1"/>
<path d="M103.635 54.7346V56.3096H107.591V54.7346H103.635Z" fill="#8147A5" fill-opacity="1"/>
<path d="M103.633 59.3308V60.9058H107.589V59.3308H103.633Z" fill="#8147A5" fill-opacity="1"/>
<path d="M99.6855 63.9177V65.4927H107.598V63.9177H99.6855Z" fill="#8147A5" fill-opacity="1"/>
<path d="M103.629 68.5217V70.0967H107.585V68.5217H103.629Z" fill="#8147A5" fill-opacity="1"/>
<path d="M103.627 73.1169V74.6919H107.583V73.1169H103.627Z" fill="#8147A5" fill-opacity="1"/>
<path d="M99.6799 77.7043V79.2793H107.592V77.7043H99.6799Z" fill="#8147A5" fill-opacity="1"/>
</svg>
