<svg width="80" height="78" viewBox="0 0 80 78" fill="none" xmlns="http://www.w3.org/2000/svg">
<path d="M75 0H5C2.5 0 0 2.43056 0 4.86111V59.5493C0 61.9798 2.5 64.4104 5 64.4104H30V69.2715C30 72.647 25.496 74.1326 20 74.1326V77.7778H60V74.1313C54.5027 74.1313 50 72.6457 50 69.2702V64.4091H75C77.5 64.4091 80 61.9785 80 59.548V4.86111C80 2.43056 77.5 0 75 0ZM77.3333 59.5493C77.3333 60.5461 76.024 61.8178 75 61.8178H5C3.97467 61.8178 2.66667 60.5461 2.66667 59.5493V54.6881H77.3333V59.5493Z" fill="white"/>
</svg>
