<svg width="32" height="32" viewBox="0 0 32 32" fill="none" xmlns="http://www.w3.org/2000/svg">
<path d="M15.9969 11.8316C13.7016 11.8316 11.8284 13.7047 11.8284 16C11.8284 18.2953 13.7016 20.1684 15.9969 20.1684C18.2922 20.1684 20.1653 18.2953 20.1653 16C20.1653 13.7047 18.2922 11.8316 15.9969 11.8316ZM28.4991 16C28.4991 14.2738 28.5147 12.5633 28.4178 10.8403C28.3208 8.83891 27.8643 7.06271 26.4008 5.59922C24.9342 4.13261 23.1611 3.67918 21.1597 3.58224C19.4336 3.48529 17.723 3.50093 16 3.50093C14.2738 3.50093 12.5633 3.48529 10.8403 3.58224C8.83891 3.67918 7.06271 4.13573 5.59922 5.59922C4.13261 7.06584 3.67918 8.83891 3.58224 10.8403C3.48529 12.5664 3.50093 14.277 3.50093 16C3.50093 17.723 3.48529 19.4367 3.58224 21.1597C3.67918 23.1611 4.13573 24.9373 5.59922 26.4008C7.06584 27.8674 8.83891 28.3208 10.8403 28.4178C12.5664 28.5147 14.277 28.4991 16 28.4991C17.7262 28.4991 19.4367 28.5147 21.1597 28.4178C23.1611 28.3208 24.9373 27.8643 26.4008 26.4008C27.8674 24.9342 28.3208 23.1611 28.4178 21.1597C28.5178 19.4367 28.4991 17.7262 28.4991 16ZM15.9969 22.4137C12.4476 22.4137 9.58316 19.5493 9.58316 16C9.58316 12.4507 12.4476 9.58629 15.9969 9.58629C19.5461 9.58629 22.4106 12.4507 22.4106 16C22.4106 19.5493 19.5461 22.4137 15.9969 22.4137ZM22.6733 10.8215C21.8446 10.8215 21.1754 10.1523 21.1754 9.32361C21.1754 8.49493 21.8446 7.82573 22.6733 7.82573C23.5019 7.82573 24.1711 8.49493 24.1711 9.32361C24.1714 9.52039 24.1328 9.71528 24.0576 9.89712C23.9824 10.079 23.8721 10.2442 23.733 10.3833C23.5938 10.5225 23.4286 10.6328 23.2468 10.708C23.0649 10.7832 22.87 10.8217 22.6733 10.8215Z" fill="#874AAD"/>
</svg>
