<svg width="120" height="120" viewBox="0 0 120 120" fill="none" xmlns="http://www.w3.org/2000/svg">
<path d="M79.0195 22.4401C80.4234 22.4401 81.5766 23.5933 81.5766 24.9972V95.3092C81.5766 96.7131 80.4234 97.8663 79.0195 97.8663H40.9805C39.5766 97.8663 38.4234 96.7131 38.4234 95.3092V24.9972C38.4234 23.5933 39.5766 22.4401 40.9805 22.4401H79.0195ZM79.0195 20H40.9805C38.2228 20 36 22.2396 36 24.9805V95.2925C36 98.0501 38.2396 100.273 40.9805 100.273H79.0195C81.7772 100.273 84 98.0334 84 95.2925V24.9972C84 22.2396 81.7772 20 79.0195 20Z" fill="white"/>
<path d="M75.8276 25.2646H44.173C42.5017 25.2646 41.1479 26.6184 41.1479 28.2897V92C41.1479 93.6713 42.5017 95.0251 44.173 95.0251H75.8276C77.4989 95.0251 78.8527 93.6713 78.8527 92V28.2897C78.836 26.6184 77.4989 25.2646 75.8276 25.2646ZM63.8945 90.6463H53.8332C53.1647 90.6463 52.6131 90.1114 52.6131 89.4262C52.6131 88.741 53.1479 88.2062 53.8332 88.2062H63.8945C64.563 88.2062 65.1145 88.741 65.1145 89.4262C65.1145 90.1114 64.5797 90.6463 63.8945 90.6463Z" fill="white"/>
</svg>
