<svg width="120" height="120" viewBox="0 0 120 120" fill="none" xmlns="http://www.w3.org/2000/svg">
<path d="M79.0195 22.2941C80.4234 22.2941 81.5766 23.4473 81.5766 24.8512V95.1631C81.5766 96.567 80.4234 97.7202 79.0195 97.7202H40.9805C39.5766 97.7202 38.4234 96.567 38.4234 95.1631V24.8512C38.4234 23.4473 39.5766 22.2941 40.9805 22.2941H79.0195ZM79.0195 19.854H40.9805C38.2228 19.854 36 22.0936 36 24.8345V95.1464C36 97.9041 38.2396 100.127 40.9805 100.127H79.0195C81.7771 100.127 84 97.8874 84 95.1464V24.8512C84 22.0936 81.7771 19.854 79.0195 19.854Z" fill="black"/>
<path d="M75.8273 27.5588C76.1449 27.5588 76.4123 27.8262 76.4123 28.1437V91.854C76.4123 92.1715 76.1449 92.4389 75.8273 92.4389H44.1728C43.8552 92.4389 43.5878 92.1715 43.5878 91.854V28.1437C43.5878 27.8262 43.8552 27.5588 44.1728 27.5588H75.8273ZM75.8273 25.1187H44.1728C42.5015 25.1187 41.1477 26.4724 41.1477 28.1437V91.854C41.1477 93.5253 42.5015 94.879 44.1728 94.879H75.8273C77.4987 94.879 78.8524 93.5253 78.8524 91.854V28.1437C78.8357 26.4724 77.4987 25.1187 75.8273 25.1187Z" fill="black"/>
<path d="M63.8941 90.5007H53.8328C53.1643 90.5007 52.6128 89.9658 52.6128 89.2806C52.6128 88.5954 53.1476 88.0605 53.8328 88.0605H63.8941C64.5626 88.0605 65.1142 88.5954 65.1142 89.2806C65.1142 89.9658 64.5794 90.5007 63.8941 90.5007Z" fill="black"/>
</svg>
