<svg width="48" height="81" viewBox="0 0 48 81" fill="none" xmlns="http://www.w3.org/2000/svg">
<path d="M43.0195 2.44011C44.4234 2.44011 45.5766 3.59331 45.5766 4.99721V75.3092C45.5766 76.7131 44.4234 77.8663 43.0195 77.8663H4.9805C3.5766 77.8663 2.4234 76.7131 2.4234 75.3092V4.99721C2.4234 3.59331 3.5766 2.44011 4.9805 2.44011H43.0195ZM43.0195 0H4.9805C2.22284 0 0 2.23955 0 4.9805V75.2925C0 78.0501 2.23956 80.273 4.9805 80.273H43.0195C45.7772 80.273 48 78.0334 48 75.2925V4.99721C48 2.23955 45.7772 0 43.0195 0Z" fill="white"/>
<path d="M39.8276 5.26465H8.17302C6.50171 5.26465 5.14795 6.61841 5.14795 8.28972V72C5.14795 73.6713 6.50171 75.0251 8.17302 75.0251H39.8276C41.4989 75.0251 42.8527 73.6713 42.8527 72V8.28972C42.836 6.61841 41.4989 5.26465 39.8276 5.26465ZM27.8945 70.6463H17.8332C17.1647 70.6463 16.6131 70.1114 16.6131 69.4262C16.6131 68.741 17.1479 68.2062 17.8332 68.2062H27.8945C28.563 68.2062 29.1145 68.741 29.1145 69.4262C29.1145 70.1114 28.5797 70.6463 27.8945 70.6463Z" fill="white"/>
</svg>
