<svg width="40" height="40" viewBox="0 0 40 40" fill="none" xmlns="http://www.w3.org/2000/svg">
<path fill-rule="evenodd" clip-rule="evenodd" d="M20.5542 9.47029C20.5542 9.16421 20.3061 8.91608 20 8.91608C19.6939 8.91608 19.4458 9.16421 19.4458 9.47029L19.4458 19.4464L9.47003 19.4464C9.16395 19.4464 8.91582 19.6945 8.91582 20.0006C8.91582 20.3067 9.16395 20.5548 9.47003 20.5548L19.4458 20.5548V30.5302C19.4458 30.8362 19.6939 31.0844 20 31.0844C20.3061 31.0844 20.5542 30.8362 20.5542 30.5302V20.5548L30.5299 20.5548C30.836 20.5548 31.0841 20.3067 31.0841 20.0006C31.0841 19.6945 30.836 19.4464 30.5299 19.4464L20.5542 19.4464L20.5542 9.47029Z" fill="#ffffff"/>
</svg>
