<svg width="32" height="32" viewBox="0 0 32 32" fill="none"
    xmlns="http://www.w3.org/2000/svg">
    <path fill-rule="evenodd" clip-rule="evenodd" d="M16.4434 7.57574C16.4434 7.33088 16.2449 7.13238 16 7.13238C15.7551 7.13238 15.5566 7.33088 15.5566 7.57574L15.5566 15.5566L7.57598 15.5566C7.33112 15.5566 7.13262 15.7551 7.13262 16C7.13262 16.2448 7.33112 16.4433 7.57598 16.4433L15.5566 16.4433L15.5566 24.4236C15.5566 24.6685 15.7551 24.867 16 24.867C16.2449 24.867 16.4434 24.6685 16.4434 24.4236V16.4433L24.4239 16.4433C24.6687 16.4433 24.8672 16.2448 24.8672 16C24.8672 15.7551 24.6687 15.5566 24.4239 15.5566L16.4434 15.5566L16.4434 7.57574Z" fill="#110322"/>
</svg>
