<svg width="120" height="120" viewBox="0 0 120 120" fill="none" xmlns="http://www.w3.org/2000/svg">
<path d="M51 85.4104V84.4104H50H25C24.0654 84.4104 23.054 83.9466 22.2596 83.1743C21.4634 82.4002 21 81.4292 21 80.5493V25.8611C21 24.9812 21.4634 24.0102 22.2596 23.2361C23.054 22.4637 24.0654 22 25 22H95C95.9346 22 96.946 22.4637 97.7404 23.2361C98.5366 24.0102 99 24.9812 99 25.8611V80.548C99 81.4279 98.5366 82.3989 97.7404 83.173C96.946 83.9454 95.9346 84.4091 95 84.4091H70H69V85.4091V90.2702C69 92.5182 70.5381 94.0077 72.5376 94.8827C74.2913 95.6502 76.5603 96.0343 79 96.115V97.7778H41V96.1163C43.4392 96.0355 45.7081 95.6514 47.4619 94.884C49.4614 94.0091 51 92.5196 51 90.2715V85.4104ZM22.6667 74.6881H21.6667V75.6881V80.5493C21.6667 81.4353 22.2075 82.2452 22.7518 82.7743C23.3004 83.3077 24.1209 83.8178 25 83.8178H95C95.8786 83.8178 96.6991 83.3075 97.2476 82.7745C97.7918 82.2456 98.3333 81.4356 98.3333 80.5493V75.6881V74.6881H97.3333H22.6667Z" stroke="black" stroke-width="2"/>
</svg>
