<svg width="120" height="120" viewBox="0 0 120 120" fill="none" xmlns="http://www.w3.org/2000/svg">
<path d="M60 22.5806C80.6452 22.5806 97.4193 39.3548 97.4193 60C97.4193 80.6452 80.6452 97.4193 60 97.4193C39.3548 97.4193 22.5806 80.6452 22.5806 60C22.5806 39.3548 39.3548 22.5806 60 22.5806ZM60 20C37.8065 20 20 37.8065 20 60C20 82.1936 37.8065 100 60 100C81.9355 100 100 81.9355 100 60C100 38.0645 81.9355 20 60 20Z" fill="black"/>
<path d="M60 22.5806C70.8387 22.5806 80.1295 39.6129 80.1295 60C80.1295 80.3871 70.8387 97.4193 60 97.4193C49.1613 97.4193 39.8715 80.3871 39.8715 60C39.8715 39.6129 49.1613 22.5806 60 22.5806ZM60 20C47.6129 20 37.2908 37.8065 37.2908 60C37.2908 82.1936 47.3548 100 60 100C72.6452 100 82.7102 82.1936 82.7102 60C82.7102 37.8065 72.3871 20 60 20Z" fill="black"/>
<path d="M60 51.4844C84.7742 51.4844 97.4193 57.4199 97.4193 59.7424C97.4193 62.065 84.7742 68.0005 60 68.0005C35.2258 68.2586 22.5806 62.3226 22.5806 60C22.5806 57.6774 35.2258 51.4844 60 51.4844ZM60 48.9037C37.8065 48.9037 20 53.8064 20 60C20 65.9355 37.8065 70.8392 60 70.8392C81.9355 70.8392 100 65.9355 100 60C100 53.8064 81.9355 48.9037 60 48.9037Z" fill="black"/>
</svg>
