<svg width="120" height="120" viewBox="0 0 120 120" fill="none" xmlns="http://www.w3.org/2000/svg">
<path d="M56.1228 73.4535C44.1635 69.1737 33.558 64.2204 25.8784 59.492C25.8785 58.6273 25.8839 57.7888 26.0824 57.1499C34.1921 62.2723 44.915 67.3772 56.7354 71.3847C68.7299 75.677 80.5015 78.3893 90.0134 79.0675L90.0774 79.0721L90.1082 79.0157L90.1104 79.0117C91.4662 76.5304 92.827 74.0401 93.7346 71.322C94.6146 68.6865 95.2818 65.836 95.5278 63.1841C95.5589 63.2044 95.5898 63.2247 95.6208 63.2449L95.6212 63.2452C99.8015 65.952 102.904 68.543 104.846 70.7634C105.818 71.8738 106.496 72.8881 106.876 73.7747C107.256 74.6625 107.332 75.4105 107.118 75.998L107.118 75.9979L107.116 76.0047C107.01 76.3731 106.73 76.766 106.239 77.1495C105.748 77.5325 105.051 77.902 104.125 78.2241C102.273 78.8684 99.5143 79.3194 95.6756 79.3194C93.8649 79.3194 92.0615 79.3192 90.2591 79.0943L90.1978 79.0867L90.1635 79.138C89.7184 79.8045 89.278 80.4627 88.6256 81.1211C79.3704 80.2143 68.0864 77.5094 56.1228 73.4535ZM30.9432 41.0818C29.6459 43.4578 28.3621 45.8507 27.4934 48.4522L27.4934 48.4522L27.4927 48.4544C26.606 51.3311 25.9346 53.9966 25.6938 56.6601C25.3588 56.4048 25.0254 56.2381 24.6989 56.0751C20.5221 53.1447 17.8748 50.6688 16.3288 48.6766C14.779 46.6795 14.3503 45.1874 14.5658 44.2166C14.7799 43.3639 15.6433 42.5343 17.4694 41.9173C19.2926 41.3013 22.0512 40.9065 26.0048 40.9065C27.6695 40.9065 29.1385 40.9065 30.9432 41.0818ZM60.6137 95.0995C71.7118 95.0995 82.1318 89.9073 88.7124 81.3253C89.9358 81.3268 91.1047 81.3825 92.2208 81.4383L92.3913 81.4469C93.4596 81.5004 94.4799 81.5516 95.4494 81.5516C99.3001 81.5516 102.479 81.1561 104.84 80.3609C107.2 79.5663 108.761 78.3659 109.342 76.7435C110.153 74.5445 109.159 71.9651 106.779 69.1929C104.402 66.4248 100.621 63.4371 95.7764 60.3968C95.9792 45.6982 86.9089 31.9134 71.957 26.712L71.957 26.712L71.9539 26.711C68.3265 25.5794 64.471 24.9 60.614 24.9C49.725 24.9 39.2908 30.108 32.7123 38.4866L32.711 38.4883C32.6684 38.545 32.6267 38.6007 32.5859 38.6557C30.1773 38.4484 27.983 38.4484 26.0063 38.4484L26.0048 38.4484C22.1541 38.4484 18.9751 38.8439 16.6137 39.6391C14.2541 40.4337 12.6927 41.6342 12.1122 43.2566L12.1122 43.2566L12.1115 43.2586C11.4149 45.3449 12.466 47.9235 14.8445 50.7218C17.2207 53.5173 20.9453 56.5609 25.6775 59.602C25.4744 74.3005 34.5441 88.0857 49.2702 93.2873L49.2702 93.2874L49.2738 93.2885C52.9012 94.42 56.7567 95.0995 60.6137 95.0995Z" fill="white" stroke="white" stroke-width="0.2"/>
</svg>
