<svg width="120" height="120" viewBox="0 0 120 120" fill="none" xmlns="http://www.w3.org/2000/svg">
<path d="M90.0257 45.5924C92.0924 49.8476 93.1744 54.3655 93.3068 58.9337C85.8342 54.4967 76.2491 50.0799 65.535 46.3572L65.5342 46.3569C54.6299 42.6687 44.2918 40.2315 35.6515 39.1278C41.7162 31.7932 50.8402 27.3581 60.7606 27.3581C64.361 27.3581 67.9629 28.0331 71.3411 29.1591C79.6707 32.0859 86.1986 37.9386 90.0257 45.5924ZM60.7606 24.9C49.8731 24.9 39.3685 30.012 32.7039 38.7966C30.2989 38.5652 28.0502 38.4484 25.986 38.4484C22.142 38.4484 18.9686 38.8439 16.6113 39.6391C14.2558 40.4338 12.6971 41.6343 12.1177 43.2567L12.1177 43.2567L12.117 43.2587C11.4797 45.1707 12.2681 47.4509 14.1827 49.9212C16.1004 52.3953 19.1651 55.0835 23.1349 57.8242C23.904 58.3553 24.7073 58.8883 25.543 59.4224C25.2346 74.2413 34.4284 88.1776 49.2115 93.288C53.0634 94.6474 56.9138 95.1 60.5348 95.1C71.4341 95.1 81.8213 89.977 88.4213 81.1759C90.9599 81.4256 93.3415 81.5516 95.5344 81.5516C99.2659 81.5516 102.439 81.156 104.824 80.361C107.206 79.5669 108.823 78.3669 109.403 76.7433L109.404 76.7413C110.041 74.8294 109.252 72.5491 107.338 70.0789C105.42 67.6047 102.355 64.9165 98.3856 62.1758C97.4805 61.5509 96.5282 60.9232 95.5313 60.2945C95.7176 45.5813 86.547 31.7897 71.8578 26.7119L71.8578 26.7119L71.855 26.711C68.2343 25.5795 64.3854 24.9 60.7606 24.9ZM25.986 40.9065C27.5935 40.9065 29.2975 40.9801 31.0845 41.1237C29.6136 43.4342 28.3925 45.9592 27.4725 48.6772C26.5733 51.2786 25.9974 53.9118 25.7237 56.5337C25.3727 56.3063 25.0272 56.0793 24.6872 55.8526C20.4023 52.9208 17.7017 50.3874 16.1295 48.366C15.3434 47.3553 14.8412 46.4749 14.5635 45.7389C14.2869 45.0061 14.2356 44.4238 14.3392 43.9998C14.6634 43.2533 15.6427 42.4782 17.52 41.8898C19.398 41.3012 22.1531 40.9065 25.986 40.9065ZM50.1795 90.8407C37.1048 86.3077 28.6205 74.2147 28.1761 61.044C35.6541 65.4885 45.2534 69.9139 55.9855 73.6429L55.9858 73.643C66.7517 77.3387 77.0632 79.7783 85.7819 80.8788C79.7168 88.1367 70.6327 92.6419 60.7606 92.6419C57.1601 92.6419 53.558 91.9668 50.1795 90.8407ZM93.5971 71.323C94.5233 68.6435 95.1065 65.9301 95.3698 63.2302C95.974 63.6239 96.5557 64.0143 97.1147 64.4008C100.724 66.896 103.383 69.2258 105.04 71.2236C105.869 72.2227 106.444 73.1353 106.764 73.9412C107.083 74.7474 107.143 75.4381 106.956 76.0006C106.852 76.3116 106.574 76.6631 106.082 77.0166C105.591 77.369 104.895 77.7178 103.971 78.0261C102.121 78.6427 99.3662 79.0936 95.5344 79.0936C93.8047 79.0936 91.9632 79.0083 90.0268 78.8423C91.4756 76.5411 92.6816 74.0276 93.5971 71.323ZM91.6012 70.5812C90.6062 73.4665 89.2265 76.1538 87.53 78.5899C78.5825 77.5532 67.8998 74.9584 56.954 71.1958L56.9532 71.1955C45.8584 67.4972 35.9399 62.792 28.2115 58.0942C28.3784 55.2086 28.936 52.295 29.9198 49.4195L29.9199 49.4192C30.9035 46.5176 32.2631 43.8308 33.9331 41.4035C42.8923 42.4357 53.5971 45.0336 64.5662 48.8042C76.5475 52.9552 86.1998 57.5786 93.2601 61.8987C93.0846 64.8093 92.5286 67.7217 91.6012 70.5812Z" fill="black" stroke="black" stroke-width="0.2"/>
</svg>
