<svg width="120" height="120" viewBox="0 0 120 120" fill="none" xmlns="http://www.w3.org/2000/svg">
<path d="M21.438 59.9998C21.438 61.655 26.7891 64.6895 36.9564 66.8964C36.6888 64.6895 36.6888 62.4826 36.6888 59.9998C36.6888 57.5171 36.6888 55.3102 36.9564 53.1033C26.5216 55.0343 21.438 58.3447 21.438 59.9998Z" fill="white"/>
<path d="M37.2238 50.3444C38.8292 38.2065 43.1101 27.9996 48.9964 22.4823C49.7991 21.6547 48.9964 20.5513 48.1937 20.8271C32.9429 25.7927 21.4379 40.1375 20.1001 57.2409C22.7757 54.2065 28.9295 51.7237 37.2238 50.3444Z" fill="white"/>
<path d="M37.2238 69.6539C28.9295 67.9987 22.7757 65.7918 20.1001 63.0332C21.4379 80.1366 32.6753 94.4814 48.1937 99.447C49.264 99.7228 49.7991 98.3435 48.9964 97.7918C43.1101 91.9987 38.8292 81.7918 37.2238 69.6539Z" fill="white"/>
<path d="M80.5681 67.1727C80.8356 64.6899 80.8356 62.2072 80.8356 59.7244C80.8356 57.2416 80.5681 54.7589 80.5681 52.2761C74.9493 51.4485 68.2604 50.621 60.2336 50.621C52.2069 50.621 45.2504 51.1727 39.8992 52.2761C39.6316 54.7589 39.6316 57.2416 39.6316 59.7244C39.6316 62.2072 39.8992 64.6899 39.8992 67.1727C45.5179 68.0003 52.2069 68.8279 60.2336 68.8279C68.2604 68.8279 74.9493 68.2761 80.5681 67.1727Z" fill="white"/>
<path d="M60.2339 48.1379C67.458 48.1379 74.4145 48.6897 80.3008 49.5172C77.6252 32.9655 69.5985 20 60.2339 20C50.8694 20 42.5751 32.9655 40.1671 49.7931C46.0533 48.6897 52.7423 48.1379 60.2339 48.1379Z" fill="white"/>
<path d="M60.2339 71.5868C53.0099 71.5868 46.0533 71.0351 40.1671 70.2075C42.5751 87.0351 50.8694 100.001 60.2339 100.001C69.5985 100.001 77.8928 87.0351 80.3008 70.2075C74.147 71.0351 67.458 71.5868 60.2339 71.5868Z" fill="white"/>
<path d="M82.9762 50.3453C91.2705 52.0005 97.4243 54.2074 100.1 56.966C98.7621 39.8625 87.5247 25.5177 72.0063 20.5522C70.936 20.2763 70.4009 21.6556 71.2036 22.2074C77.0899 28.0005 81.3708 38.2074 82.9762 50.3453Z" fill="white"/>
<path d="M98.7626 60.0001C98.7626 58.3449 93.4114 55.3104 83.2442 53.1035C83.5117 55.3104 83.5117 57.5173 83.5117 60.0001C83.5117 62.4828 83.5117 64.6897 83.2442 66.8966C93.679 64.6897 98.7626 61.6552 98.7626 60.0001Z" fill="white"/>
<path d="M82.9764 69.6553C81.371 81.7933 77.0901 92.0002 71.2038 97.5174C70.4011 98.345 71.2038 99.4484 72.0065 99.1726C87.2573 94.2071 98.7623 79.8622 100.1 62.7588C97.4245 65.7933 91.2707 68.0002 82.9764 69.6553Z" fill="white"/>
</svg>
