<svg width="110" height="40" viewBox="0 0 110 40" fill="none" xmlns="http://www.w3.org/2000/svg">
<path d="M71.5091 37.5663H69.8641C69.7704 37.5663 69.6902 37.5395 69.6233 37.486C69.5698 37.4325 69.5297 37.3723 69.503 37.3055L68.1588 33.4336H60.4953L59.1512 37.3055C59.1244 37.3723 59.0776 37.4325 59.0107 37.486C58.9439 37.5395 58.8703 37.5663 58.7901 37.5663H57.145L62.04 23.6234C62.1604 23.2891 62.361 23.0216 62.6419 22.821C62.9361 22.607 63.2638 22.5 63.6249 22.5H66.0122C66.1326 22.5 66.2129 22.5468 66.253 22.6404L71.5091 37.5663ZM67.557 31.7083L64.949 24.2253H63.966C63.7921 24.2253 63.6717 24.3122 63.6048 24.4861L61.0971 31.7083H67.557Z" fill="black"/>
<path d="M80.5182 22.5C81.1334 22.5 81.7018 22.6538 82.2234 22.9614C82.745 23.269 83.1596 23.6836 83.4672 24.2052C83.7748 24.7268 83.9287 25.2952 83.9287 25.9105V27.8966C83.9287 28.5118 83.7748 29.0802 83.4672 29.6018C83.1596 30.1234 82.745 30.538 82.2234 30.8456C81.7018 31.1532 81.1334 31.307 80.5182 31.307H76.1247C75.8171 31.307 75.5496 31.2335 75.3222 31.0864C75.1082 30.9259 74.9879 30.7319 74.9611 30.5046V37.3055C74.9611 37.3723 74.9344 37.4325 74.8809 37.486C74.8274 37.5395 74.7672 37.5663 74.7003 37.5663H73.0753V23.6636C73.0753 23.3426 73.189 23.0684 73.4164 22.841C73.6437 22.6137 73.9179 22.5 74.2389 22.5H80.5182ZM82.0429 25.75C82.0429 25.322 81.8957 24.9609 81.6015 24.6667C81.3073 24.3724 80.9462 24.2253 80.5182 24.2253H75.3423C75.2353 24.2253 75.1417 24.2654 75.0614 24.3457C74.9946 24.4125 74.9611 24.4995 74.9611 24.6065V29.2006C74.9611 29.2942 75.0012 29.3811 75.0815 29.4614C75.1617 29.5416 75.2487 29.5817 75.3423 29.5817H80.5182C80.9462 29.5817 81.3073 29.4346 81.6015 29.1404C81.8957 28.8328 82.0429 28.4717 82.0429 28.0571V25.75Z" fill="black"/>
<path d="M93.1742 22.5C93.7894 22.5 94.3579 22.6538 94.8795 22.9614C95.4011 23.269 95.8157 23.6836 96.1233 24.2052C96.4309 24.7268 96.5847 25.2952 96.5847 25.9105V27.8966C96.5847 28.5118 96.4309 29.0802 96.1233 29.6018C95.8157 30.1234 95.4011 30.538 94.8795 30.8456C94.3579 31.1532 93.7894 31.307 93.1742 31.307H88.7807C88.4731 31.307 88.2056 31.2335 87.9783 31.0864C87.7643 30.9259 87.6439 30.7319 87.6172 30.5046V37.3055C87.6172 37.3723 87.5904 37.4325 87.5369 37.486C87.4834 37.5395 87.4232 37.5663 87.3564 37.5663H85.7314V23.6636C85.7314 23.3426 85.845 23.0684 86.0724 22.841C86.2998 22.6137 86.574 22.5 86.8949 22.5H93.1742ZM94.6989 25.75C94.6989 25.322 94.5518 24.9609 94.2575 24.6667C93.9633 24.3724 93.6022 24.2253 93.1742 24.2253H87.9983C87.8913 24.2253 87.7977 24.2654 87.7175 24.3457C87.6506 24.4125 87.6172 24.4995 87.6172 24.6065V29.2006C87.6172 29.2942 87.6573 29.3811 87.7375 29.4614C87.8178 29.5416 87.9047 29.5817 87.9983 29.5817H93.1742C93.6022 29.5817 93.9633 29.4346 94.2575 29.1404C94.5518 28.8328 94.6989 28.4717 94.6989 28.0571V25.75Z" fill="black"/>
<path d="M105.71 35.841C106.125 35.841 106.472 35.6938 106.753 35.3996C107.047 35.1054 107.194 34.7443 107.194 34.3163V32.4907C107.194 32.3837 107.154 32.2834 107.074 32.1897C107.007 32.0961 106.927 32.0359 106.833 32.0092L99.1297 29.4413C98.8221 29.3343 98.5613 29.1337 98.3473 28.8395C98.1333 28.5452 98.0263 28.2376 98.0263 27.9166V25.5293C98.0263 24.6065 98.3473 23.8709 98.9893 23.3225C99.6446 22.7742 100.46 22.5 101.437 22.5H108.579V23.9645C108.579 24.0314 108.552 24.0916 108.498 24.1451C108.458 24.1985 108.398 24.2253 108.318 24.2253H101.437C101.009 24.2253 100.641 24.3524 100.333 24.6065C100.039 24.8606 99.892 25.1949 99.892 25.6095V27.5555C99.892 27.6625 99.9255 27.7695 99.9923 27.8765C100.059 27.9701 100.146 28.0303 100.253 28.0571L107.957 30.6049C108.251 30.6985 108.498 30.8991 108.699 31.2067C108.9 31.5143 109 31.8286 109 32.1496V34.2962C109 34.9114 108.853 35.4732 108.559 35.9814C108.278 36.4762 107.883 36.8641 107.375 37.145C106.88 37.4258 106.325 37.5663 105.71 37.5663H98.0263V36.1018C98.0263 36.0215 98.0531 35.9613 98.1065 35.9212C98.16 35.8677 98.2202 35.841 98.2871 35.841H105.71Z" fill="black"/>
<path d="M2.16357 37.5663C1.84259 37.5663 1.56841 37.4526 1.34105 37.2252C1.11368 36.9978 1 36.7237 1 36.4027V23.6234C1 23.3158 1.107 23.055 1.32099 22.841C1.54835 22.6137 1.81584 22.5 2.12345 22.5H8.54316C9.15838 22.5 9.72679 22.6538 10.2484 22.9614C10.77 23.269 11.1846 23.6836 11.4922 24.2052C11.7998 24.7268 11.9536 25.2952 11.9536 25.9105V27.4352C11.9536 27.9434 11.7731 28.4583 11.412 28.9799C11.0642 29.4881 10.6296 29.7957 10.108 29.9027C10.6296 30.0365 11.0642 30.3575 11.412 30.8657C11.7731 31.3605 11.9536 31.8621 11.9536 32.3703V34.1357C11.9536 34.7509 11.7998 35.326 11.4922 35.861C11.1846 36.3826 10.77 36.7972 10.2484 37.1048C9.72679 37.4124 9.15838 37.5663 8.54316 37.5663H2.16357ZM2.88579 29.0401H8.54316C8.97114 29.0401 9.33225 28.893 9.62648 28.5987C9.92072 28.2911 10.0678 27.93 10.0678 27.5154V25.75C10.0678 25.322 9.92072 24.9609 9.62648 24.6667C9.33225 24.3724 8.97114 24.2253 8.54316 24.2253H3.26696C3.15996 24.2253 3.06634 24.2654 2.9861 24.3457C2.91923 24.4125 2.88579 24.4995 2.88579 24.6065V29.0401ZM10.0678 32.2901C10.0678 31.8621 9.92072 31.501 9.62648 31.2067C9.33225 30.9125 8.97114 30.7654 8.54316 30.7654H2.88579V35.4598C2.88579 35.5668 2.91923 35.6604 2.9861 35.7406C3.06634 35.8075 3.15996 35.841 3.26696 35.841H8.54316C8.95776 35.841 9.31219 35.6938 9.60642 35.3996C9.91403 35.092 10.0678 34.7242 10.0678 34.2962V32.2901Z" fill="#8147A5"/>
<path d="M17.6533 37.6465C17.0381 37.6465 16.4697 37.4927 15.9481 37.1851C15.4265 36.8775 15.0119 36.4629 14.7043 35.9413C14.3966 35.4197 14.2428 34.8513 14.2428 34.236V22.5H15.8678C15.9347 22.5 15.9949 22.5267 16.0484 22.5802C16.1019 22.6337 16.1286 22.6939 16.1286 22.7608V34.3965C16.1286 34.8111 16.2758 35.1722 16.57 35.4798C16.8776 35.7741 17.2387 35.9212 17.6533 35.9212H22.1872C22.6152 35.9212 22.9763 35.7741 23.2706 35.4798C23.5648 35.1722 23.7119 34.8111 23.7119 34.3965V22.7608C23.7119 22.6939 23.7387 22.6337 23.7922 22.5802C23.8457 22.5267 23.9058 22.5 23.9727 22.5H25.5977V34.236C25.5977 34.8513 25.4439 35.4197 25.1363 35.9413C24.8287 36.4629 24.4141 36.8775 23.8925 37.1851C23.3709 37.4927 22.8025 37.6465 22.1872 37.6465H17.6533Z" fill="#8147A5"/>
<path d="M28.7364 37.5663C28.6695 37.5663 28.6093 37.5395 28.5558 37.486C28.5023 37.4325 28.4756 37.3723 28.4756 37.3055V22.5H30.1006C30.1675 22.5 30.2276 22.5267 30.2811 22.5802C30.3346 22.6337 30.3614 22.6939 30.3614 22.7608V37.5663H28.7364Z" fill="#8147A5"/>
<path d="M36.5198 37.5663C35.9046 37.5663 35.3295 37.4124 34.7945 37.1048C34.2729 36.7838 33.8583 36.3626 33.5507 35.841C33.2431 35.306 33.0893 34.7242 33.0893 34.0956V22.7608C33.0893 22.6939 33.116 22.6337 33.1695 22.5802C33.223 22.5267 33.2832 22.5 33.3501 22.5H34.9751V34.2762C34.9751 34.7041 35.1222 35.0719 35.4164 35.3795C35.724 35.6872 36.0919 35.841 36.5198 35.841H42.779C42.8459 35.841 42.9061 35.8677 42.9596 35.9212C43.0131 35.9747 43.0398 36.0349 43.0398 36.1018V37.5663H36.5198Z" fill="#8147A5"/>
<path d="M45.8519 37.5663C45.5309 37.5663 45.2568 37.4526 45.0294 37.2252C44.802 36.9978 44.6883 36.7237 44.6883 36.4027V23.6636C44.6883 23.3426 44.802 23.0684 45.0294 22.841C45.2568 22.6137 45.5309 22.5 45.8519 22.5H52.2917C52.9069 22.5 53.4753 22.6538 53.9969 22.9614C54.5185 23.269 54.9331 23.6836 55.2407 24.2052C55.5483 24.7268 55.7022 25.2952 55.7022 25.9105V34.1558C55.7022 34.771 55.5483 35.3394 55.2407 35.861C54.9331 36.3826 54.5185 36.7972 53.9969 37.1048C53.4753 37.4124 52.9069 37.5663 52.2917 37.5663H45.8519ZM52.2917 35.841C52.7197 35.841 53.0808 35.6938 53.375 35.3996C53.6692 35.092 53.8164 34.7309 53.8164 34.3163V25.75C53.8164 25.322 53.6692 24.9609 53.375 24.6667C53.0808 24.3724 52.7197 24.2253 52.2917 24.2253H46.9553C46.8483 24.2253 46.7547 24.2654 46.6744 24.3457C46.6076 24.4125 46.5741 24.4995 46.5741 24.6065V35.4598C46.5741 35.5668 46.6076 35.6604 46.6744 35.7406C46.7547 35.8075 46.8483 35.841 46.9553 35.841H52.2917Z" fill="#8147A5"/>
<path d="M32 5C32 7.20914 30.2091 9 28 9C25.7909 9 24 7.20914 24 5C24 2.79086 25.7909 1 28 1C30.2091 1 32 2.79086 32 5Z" fill="#8147A5"/>
<path fill-rule="evenodd" clip-rule="evenodd" d="M4 18C5.65674 18 7 16.6567 7 15C7 13.3433 5.65674 12 4 12C2.34326 12 1 13.3433 1 15C1 16.6567 2.34326 18 4 18ZM4 17C5.10449 17 6 16.1045 6 15C6 13.8955 5.10449 13 4 13C2.89551 13 2 13.8955 2 15C2 16.1045 2.89551 17 4 17Z" fill="#8147A5"/>
<path fill-rule="evenodd" clip-rule="evenodd" d="M52.8955 18C54.5522 18 55.8955 16.6567 55.8955 15C55.8955 13.3433 54.5522 12 52.8955 12C51.2388 12 49.8955 13.3433 49.8955 15C49.8955 16.6567 51.2388 18 52.8955 18ZM52.8955 17C54 17 54.8955 16.1045 54.8955 15C54.8955 13.8955 54 13 52.8955 13C51.791 13 50.8955 13.8955 50.8955 15C50.8955 16.1045 51.791 17 52.8955 17Z" fill="#8147A5"/>
<path d="M5 12.5C17.5556 1.37119 39.3399 1.37108 51.8955 12.4999L50.3955 14.5C38.5882 4.09829 18.182 3.95759 6.5 14.4999L5 12.5Z" fill="#8147A5"/>
</svg>
