<svg width="200" height="92" viewBox="0 0 200 92" fill="none" xmlns="http://www.w3.org/2000/svg">
<circle cx="55.4706" cy="24.5882" r="6.58824" fill="#874AAD"/>
<path fill-rule="evenodd" clip-rule="evenodd" d="M95.0003 29.5293C97.7292 29.5293 99.9414 27.3171 99.9414 24.5881C99.9414 21.8592 97.7292 19.647 95.0003 19.647C92.2713 19.647 90.0591 21.8592 90.0591 24.5881C90.0591 27.3171 92.2713 29.5293 95.0003 29.5293ZM95.0003 27.8823C96.8196 27.8823 98.2944 26.4074 98.2944 24.5881C98.2944 22.7689 96.8196 21.294 95.0003 21.294C93.181 21.294 91.7062 22.7689 91.7062 24.5881C91.7062 26.4074 93.181 27.8823 95.0003 27.8823Z" fill="#874AAD"/>
<path fill-rule="evenodd" clip-rule="evenodd" d="M15.9412 29.5293C18.6701 29.5293 20.8824 27.3171 20.8824 24.5881C20.8824 21.8592 18.6701 19.647 15.9412 19.647C13.2122 19.647 11 21.8592 11 24.5881C11 27.3171 13.2122 29.5293 15.9412 29.5293ZM15.9412 27.8823C17.7604 27.8823 19.2353 26.4074 19.2353 24.5881C19.2353 22.7689 17.7604 21.294 15.9412 21.294C14.1219 21.294 12.647 22.7689 12.647 24.5881C12.647 26.4074 14.1219 27.8823 15.9412 27.8823Z" fill="#874AAD"/>
<rect x="19.2354" y="22.9412" width="72.4706" height="3.29412" fill="#874AAD"/>
<path d="M12.9165 60.815C12.3878 60.815 11.9362 60.6278 11.5617 60.2533C11.1872 59.8788 11 59.4272 11 58.8985V37.8504C11 37.3437 11.1762 36.9142 11.5287 36.5617C11.9032 36.1872 12.3437 36 12.8504 36H23.424C24.4373 36 25.3735 36.2533 26.2326 36.76C27.0918 37.2666 27.7746 37.9495 28.2813 38.8086C28.7879 39.6677 29.0413 40.6039 29.0413 41.6172V44.1285C29.0413 44.9656 28.7439 45.8137 28.1491 46.6728C27.5764 47.5098 26.8605 48.0165 26.0013 48.1927C26.8605 48.413 27.5764 48.9417 28.1491 49.7788C28.7439 50.5938 29.0413 51.4199 29.0413 52.257V55.1647C29.0413 56.178 28.7879 57.1252 28.2813 58.0064C27.7746 58.8655 27.0918 59.5484 26.2326 60.055C25.3735 60.5617 24.4373 60.815 23.424 60.815H12.9165ZM14.106 46.7719H23.424C24.1289 46.7719 24.7237 46.5296 25.2083 46.045C25.693 45.5383 25.9353 44.9435 25.9353 44.2607V41.3529C25.9353 40.648 25.693 40.0532 25.2083 39.5686C24.7237 39.084 24.1289 38.8417 23.424 38.8417H14.7338C14.5576 38.8417 14.4034 38.9078 14.2712 39.0399C14.1611 39.1501 14.106 39.2932 14.106 39.4695V46.7719ZM25.9353 52.1248C25.9353 51.4199 25.693 50.8251 25.2083 50.3405C24.7237 49.8559 24.1289 49.6136 23.424 49.6136H14.106V57.3455C14.106 57.5218 14.1611 57.676 14.2712 57.8081C14.4034 57.9183 14.5576 57.9733 14.7338 57.9733H23.424C24.1069 57.9733 24.6907 57.731 25.1753 57.2464C25.6819 56.7397 25.9353 56.134 25.9353 55.4291V52.1248Z" fill="white"/>
<path d="M38.429 60.9472C37.4157 60.9472 36.4795 60.6938 35.6204 60.1872C34.7613 59.6805 34.0784 58.9977 33.5717 58.1386C33.0651 57.2794 32.8117 56.3432 32.8117 55.3299V36H35.4882C35.5983 36 35.6975 36.0441 35.7856 36.1322C35.8737 36.2203 35.9177 36.3194 35.9177 36.4296V55.5943C35.9177 56.2772 36.1601 56.8719 36.6447 57.3786C37.1513 57.8632 37.7461 58.1055 38.429 58.1055H45.8966C46.6015 58.1055 47.1963 57.8632 47.6809 57.3786C48.1655 56.8719 48.4079 56.2772 48.4079 55.5943V36.4296C48.4079 36.3194 48.4519 36.2203 48.54 36.1322C48.6281 36.0441 48.7273 36 48.8374 36H51.5139V55.3299C51.5139 56.3432 51.2605 57.2794 50.7539 58.1386C50.2472 58.9977 49.5644 59.6805 48.7052 60.1872C47.8461 60.6938 46.9099 60.9472 45.8966 60.9472H38.429Z" fill="white"/>
<path d="M56.6835 60.815C56.5733 60.815 56.4742 60.7709 56.3861 60.6828C56.298 60.5947 56.2539 60.4956 56.2539 60.3855V36H58.9304C59.0405 36 59.1396 36.0441 59.2278 36.1322C59.3159 36.2203 59.3599 36.3194 59.3599 36.4296V60.815H56.6835Z" fill="white"/>
<path d="M69.5032 60.815C68.4899 60.815 67.5427 60.5617 66.6616 60.055C65.8025 59.5263 65.1196 58.8324 64.6129 57.9733C64.1063 57.0922 63.853 56.134 63.853 55.0986V36.4296C63.853 36.3194 63.897 36.2203 63.9851 36.1322C64.0732 36.0441 64.1724 36 64.2825 36H66.959V55.396C66.959 56.1009 67.2013 56.7067 67.6859 57.2134C68.1926 57.72 68.7983 57.9733 69.5032 57.9733H79.8125C79.9227 57.9733 80.0218 58.0174 80.1099 58.1055C80.198 58.1936 80.2421 58.2928 80.2421 58.4029V60.815H69.5032Z" fill="white"/>
<path d="M84.8737 60.815C84.3451 60.815 83.8935 60.6278 83.519 60.2533C83.1445 59.8788 82.9573 59.4272 82.9573 58.8985V37.9165C82.9573 37.3878 83.1445 36.9362 83.519 36.5617C83.8935 36.1872 84.3451 36 84.8737 36H95.4804C96.4937 36 97.4299 36.2533 98.289 36.76C99.1481 37.2666 99.831 37.9495 100.338 38.8086C100.844 39.6677 101.098 40.6039 101.098 41.6172V55.1978C101.098 56.2111 100.844 57.1473 100.338 58.0064C99.831 58.8655 99.1481 59.5484 98.289 60.055C97.4299 60.5617 96.4937 60.815 95.4804 60.815H84.8737ZM95.4804 57.9733C96.1853 57.9733 96.7801 57.731 97.2647 57.2464C97.7493 56.7397 97.9917 56.145 97.9917 55.4621V41.3529C97.9917 40.648 97.7493 40.0532 97.2647 39.5686C96.7801 39.084 96.1853 38.8417 95.4804 38.8417H86.6911C86.5149 38.8417 86.3607 38.9078 86.2285 39.0399C86.1183 39.1501 86.0633 39.2932 86.0633 39.4695V57.3455C86.0633 57.5218 86.1183 57.676 86.2285 57.8081C86.3607 57.9183 86.5149 57.9733 86.6911 57.9733H95.4804Z" fill="white"/>
<path d="M127.133 60.815H124.423C124.269 60.815 124.137 60.7709 124.027 60.6828C123.939 60.5947 123.872 60.4956 123.828 60.3855L121.615 54.0082H108.992L106.778 60.3855C106.734 60.4956 106.657 60.5947 106.547 60.6828C106.437 60.7709 106.316 60.815 106.184 60.815H103.474L111.537 37.8504C111.735 37.2997 112.065 36.8591 112.528 36.5287C113.012 36.1762 113.552 36 114.147 36H118.079C118.277 36 118.409 36.0771 118.476 36.2313L127.133 60.815ZM120.623 51.1666L116.328 38.8417H114.709C114.422 38.8417 114.224 38.9849 114.114 39.2712L109.984 51.1666H120.623Z" fill="white"/>
<path d="M141.971 36C142.984 36 143.921 36.2533 144.78 36.76C145.639 37.2666 146.322 37.9495 146.828 38.8086C147.335 39.6677 147.588 40.6039 147.588 41.6172V44.8885C147.588 45.9018 147.335 46.838 146.828 47.6971C146.322 48.5562 145.639 49.2391 144.78 49.7457C143.921 50.2524 142.984 50.5057 141.971 50.5057H134.735C134.228 50.5057 133.788 50.3846 133.413 50.1422C133.061 49.8779 132.862 49.5585 132.818 49.184V60.3855C132.818 60.4956 132.774 60.5947 132.686 60.6828C132.598 60.7709 132.499 60.815 132.389 60.815H129.712V37.9165C129.712 37.3878 129.9 36.9362 130.274 36.5617C130.649 36.1872 131.1 36 131.629 36H141.971ZM144.482 41.3529C144.482 40.648 144.24 40.0532 143.755 39.5686C143.271 39.084 142.676 38.8417 141.971 38.8417H133.446C133.27 38.8417 133.116 38.9078 132.984 39.0399C132.873 39.1501 132.818 39.2932 132.818 39.4695V47.0362C132.818 47.1904 132.884 47.3336 133.017 47.4658C133.149 47.598 133.292 47.664 133.446 47.664H141.971C142.676 47.664 143.271 47.4217 143.755 46.9371C144.24 46.4305 144.482 45.8357 144.482 45.1528V41.3529Z" fill="white"/>
<path d="M162.816 36C163.83 36 164.766 36.2533 165.625 36.76C166.484 37.2666 167.167 37.9495 167.674 38.8086C168.18 39.6677 168.434 40.6039 168.434 41.6172V44.8885C168.434 45.9018 168.18 46.838 167.674 47.6971C167.167 48.5562 166.484 49.2391 165.625 49.7457C164.766 50.2524 163.83 50.5057 162.816 50.5057H155.58C155.073 50.5057 154.633 50.3846 154.258 50.1422C153.906 49.8779 153.708 49.5585 153.664 49.184V60.3855C153.664 60.4956 153.62 60.5947 153.531 60.6828C153.443 60.7709 153.344 60.815 153.234 60.815H150.558V37.9165C150.558 37.3878 150.745 36.9362 151.119 36.5617C151.494 36.1872 151.945 36 152.474 36H162.816ZM165.328 41.3529C165.328 40.648 165.085 40.0532 164.601 39.5686C164.116 39.084 163.521 38.8417 162.816 38.8417H154.291C154.115 38.8417 153.961 38.9078 153.829 39.0399C153.719 39.1501 153.664 39.2932 153.664 39.4695V47.0362C153.664 47.1904 153.73 47.3336 153.862 47.4658C153.994 47.598 154.137 47.664 154.291 47.664H162.816C163.521 47.664 164.116 47.4217 164.601 46.9371C165.085 46.4305 165.328 45.8357 165.328 45.1528V41.3529Z" fill="white"/>
<path d="M183.463 57.9733C184.146 57.9733 184.719 57.731 185.182 57.2464C185.666 56.7618 185.909 56.167 185.909 55.4621V52.4552C185.909 52.279 185.842 52.1138 185.71 51.9596C185.6 51.8054 185.468 51.7063 185.314 51.6622L172.625 47.4327C172.119 47.2565 171.689 46.9261 171.337 46.4415C170.984 45.9568 170.808 45.4502 170.808 44.9215V40.9894C170.808 39.4695 171.337 38.2579 172.394 37.3547C173.473 36.4516 174.817 36 176.425 36H188.188V38.4121C188.188 38.5223 188.144 38.6214 188.056 38.7095C187.99 38.7976 187.891 38.8417 187.759 38.8417H176.425C175.72 38.8417 175.115 39.0509 174.608 39.4695C174.123 39.888 173.881 40.4387 173.881 41.1216V44.3267C173.881 44.503 173.936 44.6792 174.046 44.8554C174.156 45.0096 174.3 45.1087 174.476 45.1528L187.164 49.3492C187.649 49.5034 188.056 49.8338 188.387 50.3405C188.717 50.8471 188.882 51.3648 188.882 51.8935V55.4291C188.882 56.4424 188.64 57.3676 188.155 58.2046C187.693 59.0197 187.043 59.6585 186.206 60.1211C185.391 60.5837 184.477 60.815 183.463 60.815H170.808V58.4029C170.808 58.2707 170.852 58.1716 170.94 58.1055C171.028 58.0174 171.127 57.9733 171.238 57.9733H183.463Z" fill="white"/>
<path d="M12.9165 60.815C12.3878 60.815 11.9362 60.6278 11.5617 60.2533C11.1872 59.8788 11 59.4272 11 58.8985V37.8504C11 37.3437 11.1762 36.9142 11.5287 36.5617C11.9032 36.1872 12.3437 36 12.8504 36H23.424C24.4373 36 25.3735 36.2533 26.2326 36.76C27.0918 37.2666 27.7746 37.9495 28.2813 38.8086C28.7879 39.6677 29.0413 40.6039 29.0413 41.6172V44.1285C29.0413 44.9656 28.7439 45.8137 28.1491 46.6728C27.5764 47.5098 26.8605 48.0165 26.0013 48.1927C26.8605 48.413 27.5764 48.9417 28.1491 49.7788C28.7439 50.5938 29.0413 51.4199 29.0413 52.257V55.1647C29.0413 56.178 28.7879 57.1252 28.2813 58.0064C27.7746 58.8655 27.0918 59.5484 26.2326 60.055C25.3735 60.5617 24.4373 60.815 23.424 60.815H12.9165ZM14.106 46.7719H23.424C24.1289 46.7719 24.7237 46.5296 25.2083 46.045C25.693 45.5383 25.9353 44.9435 25.9353 44.2607V41.3529C25.9353 40.648 25.693 40.0532 25.2083 39.5686C24.7237 39.084 24.1289 38.8417 23.424 38.8417H14.7338C14.5576 38.8417 14.4034 38.9078 14.2712 39.0399C14.1611 39.1501 14.106 39.2932 14.106 39.4695V46.7719ZM25.9353 52.1248C25.9353 51.4199 25.693 50.8251 25.2083 50.3405C24.7237 49.8559 24.1289 49.6136 23.424 49.6136H14.106V57.3455C14.106 57.5218 14.1611 57.676 14.2712 57.8081C14.4034 57.9183 14.5576 57.9733 14.7338 57.9733H23.424C24.1069 57.9733 24.6907 57.731 25.1753 57.2464C25.6819 56.7397 25.9353 56.134 25.9353 55.4291V52.1248Z" fill="#874AAD"/>
<path d="M38.429 60.9472C37.4157 60.9472 36.4795 60.6938 35.6204 60.1872C34.7613 59.6805 34.0784 58.9977 33.5717 58.1386C33.0651 57.2794 32.8117 56.3432 32.8117 55.3299V36H35.4882C35.5983 36 35.6975 36.0441 35.7856 36.1322C35.8737 36.2203 35.9177 36.3194 35.9177 36.4296V55.5943C35.9177 56.2772 36.1601 56.8719 36.6447 57.3786C37.1513 57.8632 37.7461 58.1055 38.429 58.1055H45.8966C46.6015 58.1055 47.1963 57.8632 47.6809 57.3786C48.1655 56.8719 48.4079 56.2772 48.4079 55.5943V36.4296C48.4079 36.3194 48.4519 36.2203 48.54 36.1322C48.6281 36.0441 48.7273 36 48.8374 36H51.5139V55.3299C51.5139 56.3432 51.2605 57.2794 50.7539 58.1386C50.2472 58.9977 49.5644 59.6805 48.7052 60.1872C47.8461 60.6938 46.9099 60.9472 45.8966 60.9472H38.429Z" fill="#874AAD"/>
<path d="M56.6835 60.815C56.5733 60.815 56.4742 60.7709 56.3861 60.6828C56.298 60.5947 56.2539 60.4956 56.2539 60.3855V36H58.9304C59.0405 36 59.1396 36.0441 59.2278 36.1322C59.3159 36.2203 59.3599 36.3194 59.3599 36.4296V60.815H56.6835Z" fill="#874AAD"/>
<path d="M69.5032 60.815C68.4899 60.815 67.5427 60.5617 66.6616 60.055C65.8025 59.5263 65.1196 58.8324 64.6129 57.9733C64.1063 57.0922 63.853 56.134 63.853 55.0986V36.4296C63.853 36.3194 63.897 36.2203 63.9851 36.1322C64.0732 36.0441 64.1724 36 64.2825 36H66.959V55.396C66.959 56.1009 67.2013 56.7067 67.6859 57.2134C68.1926 57.72 68.7983 57.9733 69.5032 57.9733H79.8125C79.9227 57.9733 80.0218 58.0174 80.1099 58.1055C80.198 58.1936 80.2421 58.2928 80.2421 58.4029V60.815H69.5032Z" fill="#874AAD"/>
<path d="M84.8737 60.815C84.3451 60.815 83.8935 60.6278 83.519 60.2533C83.1445 59.8788 82.9573 59.4272 82.9573 58.8985V37.9165C82.9573 37.3878 83.1445 36.9362 83.519 36.5617C83.8935 36.1872 84.3451 36 84.8737 36H95.4804C96.4937 36 97.4299 36.2533 98.289 36.76C99.1481 37.2666 99.831 37.9495 100.338 38.8086C100.844 39.6677 101.098 40.6039 101.098 41.6172V55.1978C101.098 56.2111 100.844 57.1473 100.338 58.0064C99.831 58.8655 99.1481 59.5484 98.289 60.055C97.4299 60.5617 96.4937 60.815 95.4804 60.815H84.8737ZM95.4804 57.9733C96.1853 57.9733 96.7801 57.731 97.2647 57.2464C97.7493 56.7397 97.9917 56.145 97.9917 55.4621V41.3529C97.9917 40.648 97.7493 40.0532 97.2647 39.5686C96.7801 39.084 96.1853 38.8417 95.4804 38.8417H86.6911C86.5149 38.8417 86.3607 38.9078 86.2285 39.0399C86.1183 39.1501 86.0633 39.2932 86.0633 39.4695V57.3455C86.0633 57.5218 86.1183 57.676 86.2285 57.8081C86.3607 57.9183 86.5149 57.9733 86.6911 57.9733H95.4804Z" fill="#874AAD"/>
</svg>
