<svg width="108" height="33" viewBox="0 0 108 33" fill="none" xmlns="http://www.w3.org/2000/svg">
<path d="M1.16357 27.0663C0.842587 27.0663 0.568412 26.9526 0.341047 26.7252C0.113682 26.4978 0 26.2237 0 25.9027V13.1234C0 12.8158 0.106995 12.555 0.320985 12.341C0.54835 12.1137 0.815838 12 1.12345 12H7.54316C8.15838 12 8.72679 12.1538 9.24839 12.4614C9.76999 12.769 10.1846 13.1836 10.4922 13.7052C10.7998 14.2268 10.9536 14.7952 10.9536 15.4105V16.9352C10.9536 17.4434 10.7731 17.9583 10.412 18.4799C10.0642 18.9881 9.62956 19.2957 9.10796 19.4027C9.62956 19.5365 10.0642 19.8575 10.412 20.3657C10.7731 20.8605 10.9536 21.3621 10.9536 21.8703V23.6357C10.9536 24.2509 10.7998 24.826 10.4922 25.361C10.1846 25.8826 9.76999 26.2972 9.24839 26.6048C8.72679 26.9124 8.15838 27.0663 7.54316 27.0663H1.16357ZM1.88579 18.5401H7.54316C7.97114 18.5401 8.33225 18.393 8.62648 18.0987C8.92072 17.7911 9.06784 17.43 9.06784 17.0154V15.25C9.06784 14.822 8.92072 14.4609 8.62648 14.1667C8.33225 13.8724 7.97114 13.7253 7.54316 13.7253H2.26696C2.15996 13.7253 2.06634 13.7654 1.9861 13.8457C1.91923 13.9125 1.88579 13.9995 1.88579 14.1065V18.5401ZM9.06784 21.7901C9.06784 21.3621 8.92072 21.001 8.62648 20.7067C8.33225 20.4125 7.97114 20.2654 7.54316 20.2654H1.88579V24.9598C1.88579 25.0668 1.91923 25.1604 1.9861 25.2406C2.06634 25.3075 2.15996 25.341 2.26696 25.341H7.54316C7.95776 25.341 8.31219 25.1938 8.60642 24.8996C8.91403 24.592 9.06784 24.2242 9.06784 23.7962V21.7901Z" fill="#8147A5"/>
<path d="M16.6533 27.1465C16.0381 27.1465 15.4697 26.9927 14.9481 26.6851C14.4265 26.3775 14.0119 25.9629 13.7043 25.4413C13.3966 24.9197 13.2428 24.3513 13.2428 23.736V12H14.8678C14.9347 12 14.9949 12.0267 15.0484 12.0802C15.1019 12.1337 15.1286 12.1939 15.1286 12.2608V23.8965C15.1286 24.3111 15.2758 24.6722 15.57 24.9798C15.8776 25.2741 16.2387 25.4212 16.6533 25.4212H21.1872C21.6152 25.4212 21.9763 25.2741 22.2706 24.9798C22.5648 24.6722 22.7119 24.3111 22.7119 23.8965V12.2608C22.7119 12.1939 22.7387 12.1337 22.7922 12.0802C22.8457 12.0267 22.9058 12 22.9727 12H24.5977V23.736C24.5977 24.3513 24.4439 24.9197 24.1363 25.4413C23.8287 25.9629 23.4141 26.3775 22.8925 26.6851C22.3709 26.9927 21.8025 27.1465 21.1872 27.1465H16.6533Z" fill="#8147A5"/>
<path d="M27.7364 27.0663C27.6695 27.0663 27.6093 27.0395 27.5558 26.986C27.5023 26.9325 27.4756 26.8723 27.4756 26.8055V12H29.1006C29.1675 12 29.2276 12.0267 29.2811 12.0802C29.3346 12.1337 29.3614 12.1939 29.3614 12.2608V27.0663H27.7364Z" fill="#8147A5"/>
<path d="M35.5198 27.0663C34.9046 27.0663 34.3295 26.9124 33.7945 26.6048C33.2729 26.2839 32.8583 25.8626 32.5507 25.341C32.2431 24.806 32.0893 24.2242 32.0893 23.5956V12.2608C32.0893 12.1939 32.116 12.1337 32.1695 12.0802C32.223 12.0267 32.2832 12 32.3501 12H33.9751V23.7762C33.9751 24.2041 34.1222 24.5719 34.4164 24.8795C34.7241 25.1872 35.0918 25.341 35.5198 25.341H41.779C41.8459 25.341 41.9061 25.3677 41.9596 25.4212C42.0131 25.4747 42.0398 25.5349 42.0398 25.6018V27.0663H35.5198Z" fill="#8147A5"/>
<path d="M44.8519 27.0663C44.5309 27.0663 44.2568 26.9526 44.0294 26.7252C43.802 26.4978 43.6883 26.2237 43.6883 25.9027V13.1636C43.6883 12.8426 43.802 12.5684 44.0294 12.341C44.2568 12.1137 44.5309 12 44.8519 12H51.2917C51.9069 12 52.4753 12.1538 52.9969 12.4614C53.5185 12.769 53.9331 13.1836 54.2407 13.7052C54.5483 14.2268 54.7022 14.7952 54.7022 15.4105V23.6558C54.7022 24.271 54.5483 24.8394 54.2407 25.361C53.9331 25.8826 53.5185 26.2972 52.9969 26.6048C52.4753 26.9124 51.9069 27.0663 51.2917 27.0663H44.8519ZM51.2917 25.341C51.7197 25.341 52.0808 25.1938 52.375 24.8996C52.6692 24.592 52.8164 24.2309 52.8164 23.8163V15.25C52.8164 14.822 52.6692 14.4609 52.375 14.1667C52.0808 13.8724 51.7197 13.7253 51.2917 13.7253H45.9553C45.8483 13.7253 45.7547 13.7654 45.6744 13.8457C45.6076 13.9125 45.5741 13.9995 45.5741 14.1065V24.9598C45.5741 25.0668 45.6076 25.1604 45.6744 25.2406C45.7547 25.3075 45.8483 25.341 45.9553 25.341H51.2917Z" fill="#8147A5"/>
<path d="M70.5091 27.0663H68.8641C68.7704 27.0663 68.6902 27.0395 68.6233 26.986C68.5698 26.9325 68.5297 26.8723 68.503 26.8055L67.1588 22.9336H59.4953L58.1512 26.8055C58.1244 26.8723 58.0776 26.9325 58.0107 26.986C57.9439 27.0395 57.8703 27.0663 57.7901 27.0663H56.145L61.04 13.1234C61.1604 12.7891 61.361 12.5216 61.6419 12.321C61.9361 12.107 62.2638 12 62.6249 12H65.0122C65.1326 12 65.2129 12.0468 65.253 12.1404L70.5091 27.0663ZM66.557 21.2083L63.949 13.7253H62.966C62.7921 13.7253 62.6717 13.8122 62.6048 13.9861L60.0971 21.2083H66.557Z" fill="black"/>
<path d="M79.5182 12C80.1334 12 80.7018 12.1538 81.2234 12.4614C81.745 12.769 82.1596 13.1836 82.4672 13.7052C82.7748 14.2268 82.9287 14.7952 82.9287 15.4105V17.3966C82.9287 18.0118 82.7748 18.5802 82.4672 19.1018C82.1596 19.6234 81.745 20.038 81.2234 20.3456C80.7018 20.6532 80.1334 20.807 79.5182 20.807H75.1247C74.8171 20.807 74.5496 20.7335 74.3222 20.5864C74.1082 20.4259 73.9879 20.2319 73.9611 20.0046V26.8055C73.9611 26.8723 73.9344 26.9325 73.8809 26.986C73.8274 27.0395 73.7672 27.0663 73.7003 27.0663H72.0753V13.1636C72.0753 12.8426 72.189 12.5684 72.4164 12.341C72.6437 12.1137 72.9179 12 73.2389 12H79.5182ZM81.0429 15.25C81.0429 14.822 80.8957 14.4609 80.6015 14.1667C80.3073 13.8724 79.9462 13.7253 79.5182 13.7253H74.3423C74.2353 13.7253 74.1417 13.7654 74.0614 13.8457C73.9946 13.9125 73.9611 13.9995 73.9611 14.1065V18.7006C73.9611 18.7942 74.0012 18.8811 74.0815 18.9614C74.1617 19.0416 74.2487 19.0817 74.3423 19.0817H79.5182C79.9462 19.0817 80.3073 18.9346 80.6015 18.6404C80.8957 18.3328 81.0429 17.9717 81.0429 17.5571V15.25Z" fill="black"/>
<path d="M92.1742 12C92.7894 12 93.3579 12.1538 93.8795 12.4614C94.4011 12.769 94.8157 13.1836 95.1233 13.7052C95.4309 14.2268 95.5847 14.7952 95.5847 15.4105V17.3966C95.5847 18.0118 95.4309 18.5802 95.1233 19.1018C94.8157 19.6234 94.4011 20.038 93.8795 20.3456C93.3579 20.6532 92.7894 20.807 92.1742 20.807H87.7807C87.4731 20.807 87.2056 20.7335 86.9783 20.5864C86.7643 20.4259 86.6439 20.2319 86.6172 20.0046V26.8055C86.6172 26.8723 86.5904 26.9325 86.5369 26.986C86.4834 27.0395 86.4232 27.0663 86.3564 27.0663H84.7314V13.1636C84.7314 12.8426 84.845 12.5684 85.0724 12.341C85.2998 12.1137 85.574 12 85.8949 12H92.1742ZM93.6989 15.25C93.6989 14.822 93.5518 14.4609 93.2575 14.1667C92.9633 13.8724 92.6022 13.7253 92.1742 13.7253H86.9983C86.8913 13.7253 86.7977 13.7654 86.7175 13.8457C86.6506 13.9125 86.6172 13.9995 86.6172 14.1065V18.7006C86.6172 18.7942 86.6573 18.8811 86.7375 18.9614C86.8178 19.0416 86.9047 19.0817 86.9983 19.0817H92.1742C92.6022 19.0817 92.9633 18.9346 93.2575 18.6404C93.5518 18.3328 93.6989 17.9717 93.6989 17.5571V15.25Z" fill="black"/>
<path d="M104.71 25.341C105.125 25.341 105.472 25.1938 105.753 24.8996C106.047 24.6054 106.194 24.2443 106.194 23.8163V21.9907C106.194 21.8837 106.154 21.7834 106.074 21.6897C106.007 21.5961 105.927 21.5359 105.833 21.5092L98.1297 18.9413C97.8221 18.8343 97.5613 18.6337 97.3473 18.3395C97.1333 18.0452 97.0263 17.7376 97.0263 17.4166V15.0293C97.0263 14.1065 97.3473 13.3709 97.9893 12.8225C98.6446 12.2742 99.4604 12 100.437 12H107.579V13.4645C107.579 13.5314 107.552 13.5916 107.498 13.6451C107.458 13.6985 107.398 13.7253 107.318 13.7253H100.437C100.009 13.7253 99.641 13.8524 99.3334 14.1065C99.0391 14.3606 98.892 14.6949 98.892 15.1095V17.0555C98.892 17.1625 98.9255 17.2695 98.9923 17.3765C99.0592 17.4701 99.1461 17.5303 99.2531 17.5571L106.957 20.1049C107.251 20.1985 107.498 20.3991 107.699 20.7067C107.9 21.0143 108 21.3286 108 21.6496V23.7962C108 24.4114 107.853 24.9732 107.559 25.4814C107.278 25.9762 106.883 26.3641 106.375 26.645C105.88 26.9258 105.325 27.0663 104.71 27.0663H97.0263V25.6018C97.0263 25.5215 97.0531 25.4613 97.1065 25.4212C97.16 25.3677 97.2202 25.341 97.2871 25.341H104.71Z" fill="black"/>
<path fill-rule="evenodd" clip-rule="evenodd" d="M30.874 3H48.1707C48.5826 1.83496 49.6938 1 51 1C52.6569 1 54 2.34326 54 4C54 5.65674 52.6569 7 51 7C49.6938 7 48.5826 6.16504 48.1707 5H30.874C30.4299 6.72534 28.8639 8 27 8C25.1361 8 23.5701 6.72534 23.126 5H5.82928C5.41742 6.16504 4.30621 7 3 7C1.34314 7 0 5.65674 0 4C0 2.34326 1.34314 1 3 1C4.30621 1 5.41742 1.83496 5.82928 3H23.126C23.5701 1.27466 25.1361 0 27 0C28.8639 0 30.4299 1.27466 30.874 3ZM5 4C5 5.10449 4.10455 6 3 6C1.89545 6 1 5.10449 1 4C1 2.89551 1.89545 2 3 2C4.10455 2 5 2.89551 5 4ZM49 4C49 5.10449 49.8954 6 51 6C52.1046 6 53 5.10449 53 4C53 2.89551 52.1046 2 51 2C49.8954 2 49 2.89551 49 4Z" fill="#8147A5"/>
</svg>
