<svg width="200" height="92" viewBox="0 0 200 92" fill="none" xmlns="http://www.w3.org/2000/svg">
<path d="M12.9165 58.815C12.3878 58.815 11.9362 58.6278 11.5617 58.2533C11.1872 57.8788 11 57.4272 11 56.8985V35.8504C11 35.3437 11.1762 34.9142 11.5287 34.5617C11.9032 34.1872 12.3437 34 12.8504 34H23.424C24.4373 34 25.3735 34.2533 26.2326 34.76C27.0918 35.2666 27.7746 35.9495 28.2813 36.8086C28.7879 37.6677 29.0413 38.6039 29.0413 39.6172V42.1285C29.0413 42.9656 28.7439 43.8137 28.1491 44.6728C27.5764 45.5098 26.8605 46.0165 26.0013 46.1927C26.8605 46.413 27.5764 46.9417 28.1491 47.7788C28.7439 48.5938 29.0413 49.4199 29.0413 50.257V53.1647C29.0413 54.178 28.7879 55.1252 28.2813 56.0064C27.7746 56.8655 27.0918 57.5484 26.2326 58.055C25.3735 58.5617 24.4373 58.815 23.424 58.815H12.9165ZM14.106 44.7719H23.424C24.1289 44.7719 24.7237 44.5296 25.2083 44.045C25.693 43.5383 25.9353 42.9435 25.9353 42.2607V39.3529C25.9353 38.648 25.693 38.0532 25.2083 37.5686C24.7237 37.084 24.1289 36.8417 23.424 36.8417H14.7338C14.5576 36.8417 14.4034 36.9078 14.2712 37.0399C14.1611 37.1501 14.106 37.2932 14.106 37.4695V44.7719ZM25.9353 50.1248C25.9353 49.4199 25.693 48.8251 25.2083 48.3405C24.7237 47.8559 24.1289 47.6136 23.424 47.6136H14.106V55.3455C14.106 55.5218 14.1611 55.676 14.2712 55.8081C14.4034 55.9183 14.5576 55.9733 14.7338 55.9733H23.424C24.1069 55.9733 24.6907 55.731 25.1753 55.2464C25.6819 54.7397 25.9353 54.134 25.9353 53.4291V50.1248Z" fill="white"/>
<path d="M38.429 58.9472C37.4157 58.9472 36.4795 58.6938 35.6204 58.1872C34.7613 57.6805 34.0784 56.9977 33.5717 56.1386C33.0651 55.2794 32.8117 54.3432 32.8117 53.3299V34H35.4882C35.5983 34 35.6975 34.0441 35.7856 34.1322C35.8737 34.2203 35.9177 34.3194 35.9177 34.4296V53.5943C35.9177 54.2772 36.1601 54.8719 36.6447 55.3786C37.1513 55.8632 37.7461 56.1055 38.429 56.1055H45.8966C46.6015 56.1055 47.1963 55.8632 47.6809 55.3786C48.1655 54.8719 48.4079 54.2772 48.4079 53.5943V34.4296C48.4079 34.3194 48.4519 34.2203 48.54 34.1322C48.6281 34.0441 48.7273 34 48.8374 34H51.5139V53.3299C51.5139 54.3432 51.2605 55.2794 50.7539 56.1386C50.2472 56.9977 49.5644 57.6805 48.7052 58.1872C47.8461 58.6938 46.9099 58.9472 45.8966 58.9472H38.429Z" fill="white"/>
<path d="M56.6835 58.815C56.5733 58.815 56.4742 58.7709 56.3861 58.6828C56.298 58.5947 56.2539 58.4956 56.2539 58.3855V34H58.9304C59.0405 34 59.1396 34.0441 59.2278 34.1322C59.3159 34.2203 59.3599 34.3194 59.3599 34.4296V58.815H56.6835Z" fill="white"/>
<path d="M69.5032 58.815C68.4899 58.815 67.5427 58.5617 66.6616 58.055C65.8025 57.5263 65.1196 56.8324 64.6129 55.9733C64.1063 55.0922 63.853 54.134 63.853 53.0986V34.4296C63.853 34.3194 63.897 34.2203 63.9851 34.1322C64.0732 34.0441 64.1724 34 64.2825 34H66.959V53.396C66.959 54.1009 67.2013 54.7067 67.6859 55.2134C68.1926 55.72 68.7983 55.9733 69.5032 55.9733H79.8125C79.9227 55.9733 80.0218 56.0174 80.1099 56.1055C80.198 56.1936 80.2421 56.2928 80.2421 56.4029V58.815H69.5032Z" fill="white"/>
<path d="M84.8737 58.815C84.3451 58.815 83.8935 58.6278 83.519 58.2533C83.1445 57.8788 82.9573 57.4272 82.9573 56.8985V35.9165C82.9573 35.3878 83.1445 34.9362 83.519 34.5617C83.8935 34.1872 84.3451 34 84.8737 34H95.4804C96.4937 34 97.4299 34.2533 98.289 34.76C99.1481 35.2666 99.831 35.9495 100.338 36.8086C100.844 37.6677 101.098 38.6039 101.098 39.6172V53.1978C101.098 54.2111 100.844 55.1473 100.338 56.0064C99.831 56.8655 99.1481 57.5484 98.289 58.055C97.4299 58.5617 96.4937 58.815 95.4804 58.815H84.8737ZM95.4804 55.9733C96.1853 55.9733 96.7801 55.731 97.2647 55.2464C97.7493 54.7397 97.9917 54.145 97.9917 53.4621V39.3529C97.9917 38.648 97.7493 38.0532 97.2647 37.5686C96.7801 37.084 96.1853 36.8417 95.4804 36.8417H86.6911C86.5149 36.8417 86.3607 36.9078 86.2285 37.0399C86.1183 37.1501 86.0633 37.2932 86.0633 37.4695V55.3455C86.0633 55.5218 86.1183 55.676 86.2285 55.8081C86.3607 55.9183 86.5149 55.9733 86.6911 55.9733H95.4804Z" fill="white"/>
<path d="M127.133 58.815H124.423C124.269 58.815 124.137 58.7709 124.027 58.6828C123.939 58.5947 123.872 58.4956 123.828 58.3855L121.615 52.0082H108.992L106.778 58.3855C106.734 58.4956 106.657 58.5947 106.547 58.6828C106.437 58.7709 106.316 58.815 106.184 58.815H103.474L111.537 35.8504C111.735 35.2997 112.065 34.8591 112.528 34.5287C113.012 34.1762 113.552 34 114.147 34H118.079C118.277 34 118.409 34.0771 118.476 34.2313L127.133 58.815ZM120.623 49.1666L116.328 36.8417H114.709C114.422 36.8417 114.224 36.9849 114.114 37.2712L109.984 49.1666H120.623Z" fill="white"/>
<path d="M141.971 34C142.984 34 143.921 34.2533 144.78 34.76C145.639 35.2666 146.322 35.9495 146.828 36.8086C147.335 37.6677 147.588 38.6039 147.588 39.6172V42.8885C147.588 43.9018 147.335 44.838 146.828 45.6971C146.322 46.5562 145.639 47.2391 144.78 47.7457C143.921 48.2524 142.984 48.5057 141.971 48.5057H134.735C134.228 48.5057 133.788 48.3846 133.413 48.1422C133.061 47.8779 132.862 47.5585 132.818 47.184V58.3855C132.818 58.4956 132.774 58.5947 132.686 58.6828C132.598 58.7709 132.499 58.815 132.389 58.815H129.712V35.9165C129.712 35.3878 129.9 34.9362 130.274 34.5617C130.649 34.1872 131.1 34 131.629 34H141.971ZM144.482 39.3529C144.482 38.648 144.24 38.0532 143.755 37.5686C143.271 37.084 142.676 36.8417 141.971 36.8417H133.446C133.27 36.8417 133.116 36.9078 132.984 37.0399C132.873 37.1501 132.818 37.2932 132.818 37.4695V45.0362C132.818 45.1904 132.884 45.3336 133.017 45.4658C133.149 45.598 133.292 45.664 133.446 45.664H141.971C142.676 45.664 143.271 45.4217 143.755 44.9371C144.24 44.4305 144.482 43.8357 144.482 43.1528V39.3529Z" fill="white"/>
<path d="M162.816 34C163.83 34 164.766 34.2533 165.625 34.76C166.484 35.2666 167.167 35.9495 167.674 36.8086C168.18 37.6677 168.434 38.6039 168.434 39.6172V42.8885C168.434 43.9018 168.18 44.838 167.674 45.6971C167.167 46.5562 166.484 47.2391 165.625 47.7457C164.766 48.2524 163.83 48.5057 162.816 48.5057H155.58C155.073 48.5057 154.633 48.3846 154.258 48.1422C153.906 47.8779 153.708 47.5585 153.664 47.184V58.3855C153.664 58.4956 153.62 58.5947 153.531 58.6828C153.443 58.7709 153.344 58.815 153.234 58.815H150.558V35.9165C150.558 35.3878 150.745 34.9362 151.119 34.5617C151.494 34.1872 151.945 34 152.474 34H162.816ZM165.328 39.3529C165.328 38.648 165.085 38.0532 164.601 37.5686C164.116 37.084 163.521 36.8417 162.816 36.8417H154.291C154.115 36.8417 153.961 36.9078 153.829 37.0399C153.719 37.1501 153.664 37.2932 153.664 37.4695V45.0362C153.664 45.1904 153.73 45.3336 153.862 45.4658C153.994 45.598 154.137 45.664 154.291 45.664H162.816C163.521 45.664 164.116 45.4217 164.601 44.9371C165.085 44.4305 165.328 43.8357 165.328 43.1528V39.3529Z" fill="white"/>
<path d="M183.463 55.9733C184.146 55.9733 184.719 55.731 185.182 55.2464C185.666 54.7618 185.909 54.167 185.909 53.4621V50.4552C185.909 50.279 185.842 50.1138 185.71 49.9596C185.6 49.8054 185.468 49.7063 185.314 49.6622L172.625 45.4327C172.119 45.2565 171.689 44.9261 171.337 44.4415C170.984 43.9568 170.808 43.4502 170.808 42.9215V38.9894C170.808 37.4695 171.337 36.2579 172.394 35.3547C173.473 34.4516 174.817 34 176.425 34H188.188V36.4121C188.188 36.5223 188.144 36.6214 188.056 36.7095C187.99 36.7976 187.891 36.8417 187.759 36.8417H176.425C175.72 36.8417 175.115 37.0509 174.608 37.4695C174.123 37.888 173.881 38.4387 173.881 39.1216V42.3267C173.881 42.503 173.936 42.6792 174.046 42.8554C174.156 43.0096 174.3 43.1087 174.476 43.1528L187.164 47.3492C187.649 47.5034 188.056 47.8338 188.387 48.3405C188.717 48.8471 188.882 49.3648 188.882 49.8935V53.4291C188.882 54.4424 188.64 55.3676 188.155 56.2046C187.693 57.0197 187.043 57.6585 186.206 58.1211C185.391 58.5837 184.477 58.815 183.463 58.815H170.808V56.4029C170.808 56.2707 170.852 56.1716 170.94 56.1055C171.028 56.0174 171.127 55.9733 171.238 55.9733H183.463Z" fill="white"/>
<path d="M12.9165 58.815C12.3878 58.815 11.9362 58.6278 11.5617 58.2533C11.1872 57.8788 11 57.4272 11 56.8985V35.8504C11 35.3437 11.1762 34.9142 11.5287 34.5617C11.9032 34.1872 12.3437 34 12.8504 34H23.424C24.4373 34 25.3735 34.2533 26.2326 34.76C27.0918 35.2666 27.7746 35.9495 28.2813 36.8086C28.7879 37.6677 29.0413 38.6039 29.0413 39.6172V42.1285C29.0413 42.9656 28.7439 43.8137 28.1491 44.6728C27.5764 45.5098 26.8605 46.0165 26.0013 46.1927C26.8605 46.413 27.5764 46.9417 28.1491 47.7788C28.7439 48.5938 29.0413 49.4199 29.0413 50.257V53.1647C29.0413 54.178 28.7879 55.1252 28.2813 56.0064C27.7746 56.8655 27.0918 57.5484 26.2326 58.055C25.3735 58.5617 24.4373 58.815 23.424 58.815H12.9165ZM14.106 44.7719H23.424C24.1289 44.7719 24.7237 44.5296 25.2083 44.045C25.693 43.5383 25.9353 42.9435 25.9353 42.2607V39.3529C25.9353 38.648 25.693 38.0532 25.2083 37.5686C24.7237 37.084 24.1289 36.8417 23.424 36.8417H14.7338C14.5576 36.8417 14.4034 36.9078 14.2712 37.0399C14.1611 37.1501 14.106 37.2932 14.106 37.4695V44.7719ZM25.9353 50.1248C25.9353 49.4199 25.693 48.8251 25.2083 48.3405C24.7237 47.8559 24.1289 47.6136 23.424 47.6136H14.106V55.3455C14.106 55.5218 14.1611 55.676 14.2712 55.8081C14.4034 55.9183 14.5576 55.9733 14.7338 55.9733H23.424C24.1069 55.9733 24.6907 55.731 25.1753 55.2464C25.6819 54.7397 25.9353 54.134 25.9353 53.4291V50.1248Z" fill="#874AAD"/>
<path d="M38.429 58.9472C37.4157 58.9472 36.4795 58.6938 35.6204 58.1872C34.7613 57.6805 34.0784 56.9977 33.5717 56.1386C33.0651 55.2794 32.8117 54.3432 32.8117 53.3299V34H35.4882C35.5983 34 35.6975 34.0441 35.7856 34.1322C35.8737 34.2203 35.9177 34.3194 35.9177 34.4296V53.5943C35.9177 54.2772 36.1601 54.8719 36.6447 55.3786C37.1513 55.8632 37.7461 56.1055 38.429 56.1055H45.8966C46.6015 56.1055 47.1963 55.8632 47.6809 55.3786C48.1655 54.8719 48.4079 54.2772 48.4079 53.5943V34.4296C48.4079 34.3194 48.4519 34.2203 48.54 34.1322C48.6281 34.0441 48.7273 34 48.8374 34H51.5139V53.3299C51.5139 54.3432 51.2605 55.2794 50.7539 56.1386C50.2472 56.9977 49.5644 57.6805 48.7052 58.1872C47.8461 58.6938 46.9099 58.9472 45.8966 58.9472H38.429Z" fill="#874AAD"/>
<path d="M56.6835 58.815C56.5733 58.815 56.4742 58.7709 56.3861 58.6828C56.298 58.5947 56.2539 58.4956 56.2539 58.3855V34H58.9304C59.0405 34 59.1396 34.0441 59.2278 34.1322C59.3159 34.2203 59.3599 34.3194 59.3599 34.4296V58.815H56.6835Z" fill="#874AAD"/>
<path d="M69.5032 58.815C68.4899 58.815 67.5427 58.5617 66.6616 58.055C65.8025 57.5263 65.1196 56.8324 64.6129 55.9733C64.1063 55.0922 63.853 54.134 63.853 53.0986V34.4296C63.853 34.3194 63.897 34.2203 63.9851 34.1322C64.0732 34.0441 64.1724 34 64.2825 34H66.959V53.396C66.959 54.1009 67.2013 54.7067 67.6859 55.2134C68.1926 55.72 68.7983 55.9733 69.5032 55.9733H79.8125C79.9227 55.9733 80.0218 56.0174 80.1099 56.1055C80.198 56.1936 80.2421 56.2928 80.2421 56.4029V58.815H69.5032Z" fill="#874AAD"/>
<path d="M84.8737 58.815C84.3451 58.815 83.8935 58.6278 83.519 58.2533C83.1445 57.8788 82.9573 57.4272 82.9573 56.8985V35.9165C82.9573 35.3878 83.1445 34.9362 83.519 34.5617C83.8935 34.1872 84.3451 34 84.8737 34H95.4804C96.4937 34 97.4299 34.2533 98.289 34.76C99.1481 35.2666 99.831 35.9495 100.338 36.8086C100.844 37.6677 101.098 38.6039 101.098 39.6172V53.1978C101.098 54.2111 100.844 55.1473 100.338 56.0064C99.831 56.8655 99.1481 57.5484 98.289 58.055C97.4299 58.5617 96.4937 58.815 95.4804 58.815H84.8737ZM95.4804 55.9733C96.1853 55.9733 96.7801 55.731 97.2647 55.2464C97.7493 54.7397 97.9917 54.145 97.9917 53.4621V39.3529C97.9917 38.648 97.7493 38.0532 97.2647 37.5686C96.7801 37.084 96.1853 36.8417 95.4804 36.8417H86.6911C86.5149 36.8417 86.3607 36.9078 86.2285 37.0399C86.1183 37.1501 86.0633 37.2932 86.0633 37.4695V55.3455C86.0633 55.5218 86.1183 55.676 86.2285 55.8081C86.3607 55.9183 86.5149 55.9733 86.6911 55.9733H95.4804Z" fill="#874AAD"/>
<path d="M61.8238 6.55791C61.8238 10.1797 58.8878 13.1158 55.2659 13.1158C51.6441 13.1158 48.708 10.1797 48.708 6.55791C48.708 2.93608 51.6441 0 55.2659 0C58.8878 0 61.8238 2.93608 61.8238 6.55791Z" fill="#874AAD"/>
<path fill-rule="evenodd" clip-rule="evenodd" d="M15.9184 27.8711C18.6346 27.8711 20.8369 25.6689 20.8369 22.9527C20.8369 20.2365 18.6346 18.0343 15.9184 18.0343C13.2022 18.0343 11 20.2365 11 22.9527C11 25.6689 13.2022 27.8711 15.9184 27.8711ZM15.9184 26.2317C17.7292 26.2317 19.1974 24.7635 19.1974 22.9527C19.1974 21.1419 17.7292 19.6737 15.9184 19.6737C14.1076 19.6737 12.6395 21.1419 12.6395 22.9527C12.6395 24.7635 14.1076 26.2317 15.9184 26.2317Z" fill="#874AAD"/>
<path fill-rule="evenodd" clip-rule="evenodd" d="M96.0816 27.8711C98.7978 27.8711 101 25.6689 101 22.9527C101 20.2365 98.7978 18.0343 96.0816 18.0343C93.3654 18.0343 91.1631 20.2365 91.1631 22.9527C91.1631 25.6689 93.3654 27.8711 96.0816 27.8711ZM96.0816 26.2317C97.8924 26.2317 99.3605 24.7635 99.3605 22.9527C99.3605 21.1419 97.8924 19.6737 96.0816 19.6737C94.2708 19.6737 92.8026 21.1419 92.8026 22.9527C92.8026 24.7635 94.2708 26.2317 96.0816 26.2317Z" fill="#874AAD"/>
<path d="M17.5579 18.854C38.1425 0.608556 73.8575 0.608378 94.4421 18.8538L91.9829 22.133C72.625 5.07959 39.1695 4.84891 20.0171 22.1328L17.5579 18.854Z" fill="#874AAD"/>
</svg>
