<svg viewBox="0 0 70 32" fill="none" xmlns="http://www.w3.org/2000/svg">
<ellipse cx="19.2945" cy="7.85699" rx="2.29156" ry="2.29156" fill="#874AAD"/>
<path fill-rule="evenodd" clip-rule="evenodd" d="M33.0434 9.57552C33.9926 9.57552 34.7621 8.80605 34.7621 7.85685C34.7621 6.90766 33.9926 6.13818 33.0434 6.13818C32.0942 6.13818 31.3247 6.90766 31.3247 7.85685C31.3247 8.80605 32.0942 9.57552 33.0434 9.57552ZM33.0435 9.00237C33.6763 9.00237 34.1892 8.48938 34.1892 7.85659C34.1892 7.22379 33.6763 6.71081 33.0435 6.71081C32.4107 6.71081 31.8977 7.22379 31.8977 7.85659C31.8977 8.48938 32.4107 9.00237 33.0435 9.00237Z" fill="#874AAD"/>
<path fill-rule="evenodd" clip-rule="evenodd" d="M5.54484 9.57552C6.49404 9.57552 7.26351 8.80605 7.26351 7.85685C7.26351 6.90766 6.49404 6.13818 5.54484 6.13818C4.59565 6.13818 3.82617 6.90766 3.82617 7.85685C3.82617 8.80605 4.59565 9.57552 5.54484 9.57552ZM5.54487 9.00237C6.17767 9.00237 6.69065 8.48938 6.69065 7.85659C6.69065 7.22379 6.17767 6.71081 5.54487 6.71081C4.91208 6.71081 4.39909 7.22379 4.39909 7.85659C4.39909 8.48938 4.91208 9.00237 5.54487 9.00237Z" fill="#874AAD"/>
<rect x="6.69043" y="7.28418" width="25.2072" height="1.14578" fill="#874AAD"/>
<path d="M4.49277 20.4575C4.30888 20.4575 4.15181 20.3924 4.02155 20.2621C3.8913 20.1318 3.82617 19.9748 3.82617 19.7909V12.4698C3.82617 12.2936 3.88747 12.1441 4.01006 12.0216C4.14032 11.8913 4.29356 11.8262 4.46978 11.8262H8.14757C8.50003 11.8262 8.82566 11.9143 9.12448 12.0905C9.4233 12.2667 9.66083 12.5043 9.83705 12.8031C10.0133 13.1019 10.1014 13.4275 10.1014 13.78V14.6535C10.1014 14.9446 9.99796 15.2396 9.79108 15.5384C9.59187 15.8296 9.34285 16.0058 9.04403 16.0671C9.34285 16.1437 9.59187 16.3276 9.79108 16.6188C9.99796 16.9023 10.1014 17.1896 10.1014 17.4808V18.4922C10.1014 18.8446 10.0133 19.1741 9.83705 19.4806C9.66083 19.7794 9.4233 20.0169 9.12448 20.1931C8.82566 20.3694 8.50003 20.4575 8.14757 20.4575H4.49277ZM4.90652 15.5729H8.14757C8.39276 15.5729 8.59963 15.4886 8.7682 15.3201C8.93676 15.1438 9.02105 14.937 9.02105 14.6994V13.6881C9.02105 13.4429 8.93676 13.236 8.7682 13.0674C8.59963 12.8989 8.39276 12.8146 8.14757 12.8146H5.12489C5.06359 12.8146 5.00996 12.8376 4.96399 12.8835C4.92568 12.9218 4.90652 12.9716 4.90652 13.0329V15.5729ZM9.02105 17.4348C9.02105 17.1896 8.93676 16.9827 8.7682 16.8142C8.59963 16.6456 8.39276 16.5613 8.14757 16.5613H4.90652V19.2507C4.90652 19.312 4.92568 19.3656 4.96399 19.4116C5.00996 19.4499 5.06359 19.4691 5.12489 19.4691H8.14757C8.3851 19.4691 8.58814 19.3848 8.75671 19.2162C8.93293 19.04 9.02105 18.8293 9.02105 18.5841V17.4348Z" fill="white"/>
<path d="M13.3667 20.5034C13.0142 20.5034 12.6886 20.4153 12.3898 20.2391C12.091 20.0629 11.8534 19.8254 11.6772 19.5265C11.501 19.2277 11.4129 18.9021 11.4129 18.5496V11.8262H12.3438C12.3821 11.8262 12.4166 11.8415 12.4472 11.8721C12.4779 11.9028 12.4932 11.9373 12.4932 11.9756V18.6416C12.4932 18.8791 12.5775 19.086 12.7461 19.2622C12.9223 19.4308 13.1292 19.515 13.3667 19.515H15.9641C16.2093 19.515 16.4162 19.4308 16.5848 19.2622C16.7533 19.086 16.8376 18.8791 16.8376 18.6416V11.9756C16.8376 11.9373 16.8529 11.9028 16.8836 11.8721C16.9142 11.8415 16.9487 11.8262 16.987 11.8262H17.9179V18.5496C17.9179 18.9021 17.8298 19.2277 17.6536 19.5265C17.4774 19.8254 17.2399 20.0629 16.941 20.2391C16.6422 20.4153 16.3166 20.5034 15.9641 20.5034H13.3667Z" fill="white"/>
<path d="M19.7161 20.4575C19.6778 20.4575 19.6433 20.4422 19.6126 20.4115C19.582 20.3809 19.5667 20.3464 19.5667 20.3081V11.8262H20.4976C20.5359 11.8262 20.5704 11.8415 20.601 11.8721C20.6317 11.9028 20.647 11.9373 20.647 11.9756V20.4575H19.7161Z" fill="white"/>
<path d="M24.1751 20.4575C23.8227 20.4575 23.4932 20.3694 23.1867 20.1931C22.8879 20.0092 22.6504 19.7679 22.4741 19.4691C22.2979 19.1626 22.2098 18.8293 22.2098 18.4692V11.9756C22.2098 11.9373 22.2251 11.9028 22.2558 11.8721C22.2864 11.8415 22.3209 11.8262 22.3592 11.8262H23.2902V18.5726C23.2902 18.8178 23.3744 19.0285 23.543 19.2047C23.7192 19.381 23.9299 19.4691 24.1751 19.4691H27.761C27.7993 19.4691 27.8338 19.4844 27.8644 19.515C27.8951 19.5457 27.9104 19.5802 27.9104 19.6185V20.4575H24.1751Z" fill="white"/>
<path d="M29.5214 20.4575C29.3375 20.4575 29.1804 20.3924 29.0502 20.2621C28.9199 20.1318 28.8548 19.9748 28.8548 19.7909V12.4928C28.8548 12.3089 28.9199 12.1518 29.0502 12.0216C29.1804 11.8913 29.3375 11.8262 29.5214 11.8262H33.2107C33.5631 11.8262 33.8888 11.9143 34.1876 12.0905C34.4864 12.2667 34.7239 12.5043 34.9001 12.8031C35.0764 13.1019 35.1645 13.4275 35.1645 13.78V18.5037C35.1645 18.8561 35.0764 19.1817 34.9001 19.4806C34.7239 19.7794 34.4864 20.0169 34.1876 20.1931C33.8888 20.3694 33.5631 20.4575 33.2107 20.4575H29.5214ZM33.2107 19.4691C33.4558 19.4691 33.6627 19.3848 33.8313 19.2162C33.9999 19.04 34.0841 18.8331 34.0841 18.5956V13.6881C34.0841 13.4429 33.9999 13.236 33.8313 13.0674C33.6627 12.8989 33.4558 12.8146 33.2107 12.8146H30.1535C30.0922 12.8146 30.0386 12.8376 29.9926 12.8835C29.9543 12.9218 29.9351 12.9716 29.9351 13.0329V19.2507C29.9351 19.312 29.9543 19.3656 29.9926 19.4116C30.0386 19.4499 30.0922 19.4691 30.1535 19.4691H33.2107Z" fill="white"/>
<path d="M44.2201 20.4575H43.2777C43.2241 20.4575 43.1781 20.4422 43.1398 20.4115C43.1091 20.3809 43.0862 20.3464 43.0708 20.3081L42.3008 18.0899H37.9104L37.1404 20.3081C37.1251 20.3464 37.0983 20.3809 37.0599 20.4115C37.0216 20.4422 36.9795 20.4575 36.9335 20.4575H35.9911L38.7954 12.4698C38.8644 12.2782 38.9793 12.125 39.1402 12.0101C39.3088 11.8875 39.4965 11.8262 39.7034 11.8262H41.071C41.14 11.8262 41.186 11.853 41.209 11.9066L44.2201 20.4575ZM41.956 17.1015L40.4619 12.8146H39.8987C39.7991 12.8146 39.7302 12.8644 39.6919 12.964L38.2552 17.1015H41.956Z" fill="white"/>
<path d="M49.3813 11.8262C49.7338 11.8262 50.0594 11.9143 50.3583 12.0905C50.6571 12.2667 50.8946 12.5043 51.0708 12.8031C51.2471 13.1019 51.3352 13.4275 51.3352 13.78V14.9178C51.3352 15.2703 51.2471 15.5959 51.0708 15.8947C50.8946 16.1935 50.6571 16.4311 50.3583 16.6073C50.0594 16.7835 49.7338 16.8716 49.3813 16.8716H46.8644C46.6881 16.8716 46.5349 16.8295 46.4046 16.7452C46.282 16.6533 46.2131 16.5422 46.1978 16.4119V20.3081C46.1978 20.3464 46.1824 20.3809 46.1518 20.4115C46.1211 20.4422 46.0867 20.4575 46.0484 20.4575H45.1174V12.4928C45.1174 12.3089 45.1825 12.1518 45.3128 12.0216C45.443 11.8913 45.6001 11.8262 45.784 11.8262H49.3813ZM50.2548 13.6881C50.2548 13.4429 50.1705 13.236 50.002 13.0674C49.8334 12.8989 49.6265 12.8146 49.3813 12.8146H46.4161C46.3548 12.8146 46.3012 12.8376 46.2552 12.8835C46.2169 12.9218 46.1978 12.9716 46.1978 13.0329V15.6649C46.1978 15.7185 46.2207 15.7683 46.2667 15.8143C46.3127 15.8602 46.3625 15.8832 46.4161 15.8832H49.3813C49.6265 15.8832 49.8334 15.7989 50.002 15.6304C50.1705 15.4542 50.2548 15.2473 50.2548 15.0098V13.6881Z" fill="white"/>
<path d="M56.6319 11.8262C56.9843 11.8262 57.31 11.9143 57.6088 12.0905C57.9076 12.2667 58.1451 12.5043 58.3213 12.8031C58.4976 13.1019 58.5857 13.4275 58.5857 13.78V14.9178C58.5857 15.2703 58.4976 15.5959 58.3213 15.8947C58.1451 16.1935 57.9076 16.4311 57.6088 16.6073C57.31 16.7835 56.9843 16.8716 56.6319 16.8716H54.1149C53.9387 16.8716 53.7854 16.8295 53.6552 16.7452C53.5326 16.6533 53.4636 16.5422 53.4483 16.4119V20.3081C53.4483 20.3464 53.433 20.3809 53.4023 20.4115C53.3717 20.4422 53.3372 20.4575 53.2989 20.4575H52.3679V12.4928C52.3679 12.3089 52.4331 12.1518 52.5633 12.0216C52.6936 11.8913 52.8506 11.8262 53.0345 11.8262H56.6319ZM57.5053 13.6881C57.5053 13.4429 57.4211 13.236 57.2525 13.0674C57.0839 12.8989 56.877 12.8146 56.6319 12.8146H53.6666C53.6054 12.8146 53.5517 12.8376 53.5057 12.8835C53.4674 12.9218 53.4483 12.9716 53.4483 13.0329V15.6649C53.4483 15.7185 53.4713 15.7683 53.5172 15.8143C53.5632 15.8602 53.613 15.8832 53.6666 15.8832H56.6319C56.877 15.8832 57.0839 15.7989 57.2525 15.6304C57.4211 15.4542 57.5053 15.2473 57.5053 15.0098V13.6881Z" fill="white"/>
<path d="M63.8134 19.4691C64.0509 19.4691 64.2502 19.3848 64.4111 19.2162C64.5796 19.0477 64.6639 18.8408 64.6639 18.5956V17.5497C64.6639 17.4884 64.6409 17.431 64.595 17.3773C64.5566 17.3237 64.5107 17.2892 64.457 17.2739L60.0437 15.8028C59.8675 15.7415 59.7181 15.6266 59.5955 15.458C59.4729 15.2894 59.4116 15.1132 59.4116 14.9293V13.5616C59.4116 13.0329 59.5955 12.6115 59.9632 12.2974C60.3387 11.9832 60.8061 11.8262 61.3654 11.8262H65.4569V12.6652C65.4569 12.7035 65.4416 12.738 65.411 12.7686C65.388 12.7993 65.3535 12.8146 65.3075 12.8146H61.3654C61.1202 12.8146 60.9095 12.8874 60.7333 13.0329C60.5647 13.1785 60.4804 13.3701 60.4804 13.6076V14.7224C60.4804 14.7837 60.4996 14.845 60.5379 14.9063C60.5762 14.96 60.626 14.9944 60.6873 15.0098L65.1006 16.4694C65.2692 16.523 65.411 16.6379 65.5259 16.8142C65.6408 16.9904 65.6983 17.1705 65.6983 17.3543V18.5841C65.6983 18.9366 65.614 19.2584 65.4454 19.5495C65.2845 19.833 65.0585 20.0552 64.7673 20.2161C64.4839 20.377 64.1659 20.4575 63.8134 20.4575H59.4116V19.6185C59.4116 19.5725 59.4269 19.538 59.4575 19.515C59.4882 19.4844 59.5227 19.4691 59.561 19.4691H63.8134Z" fill="white"/>
<path d="M4.49277 20.4575C4.30888 20.4575 4.15181 20.3924 4.02155 20.2621C3.8913 20.1318 3.82617 19.9748 3.82617 19.7909V12.4698C3.82617 12.2936 3.88747 12.1441 4.01006 12.0216C4.14032 11.8913 4.29356 11.8262 4.46978 11.8262H8.14757C8.50003 11.8262 8.82566 11.9143 9.12448 12.0905C9.4233 12.2667 9.66083 12.5043 9.83706 12.8031C10.0133 13.1019 10.1014 13.4275 10.1014 13.78V14.6535C10.1014 14.9446 9.99796 15.2396 9.79108 15.5384C9.59187 15.8296 9.34285 16.0058 9.04403 16.0671C9.34285 16.1437 9.59187 16.3276 9.79108 16.6188C9.99796 16.9023 10.1014 17.1896 10.1014 17.4808V18.4922C10.1014 18.8446 10.0133 19.1741 9.83706 19.4806C9.66083 19.7794 9.4233 20.0169 9.12448 20.1931C8.82566 20.3694 8.50003 20.4575 8.14757 20.4575H4.49277ZM4.90652 15.5729H8.14757C8.39276 15.5729 8.59963 15.4886 8.7682 15.3201C8.93676 15.1438 9.02105 14.937 9.02105 14.6994V13.6881C9.02105 13.4429 8.93676 13.236 8.7682 13.0674C8.59963 12.8989 8.39276 12.8146 8.14757 12.8146H5.12489C5.06359 12.8146 5.00996 12.8376 4.96399 12.8835C4.92568 12.9218 4.90652 12.9716 4.90652 13.0329V15.5729ZM9.02105 17.4348C9.02105 17.1896 8.93676 16.9827 8.7682 16.8142C8.59963 16.6456 8.39276 16.5613 8.14757 16.5613H4.90652V19.2507C4.90652 19.312 4.92568 19.3656 4.96399 19.4116C5.00996 19.4499 5.06359 19.4691 5.12489 19.4691H8.14757C8.3851 19.4691 8.58814 19.3848 8.75671 19.2162C8.93293 19.04 9.02105 18.8293 9.02105 18.5841V17.4348Z" fill="#874AAD"/>
<path d="M13.3667 20.5034C13.0142 20.5034 12.6886 20.4153 12.3898 20.2391C12.091 20.0629 11.8534 19.8254 11.6772 19.5265C11.501 19.2277 11.4129 18.9021 11.4129 18.5496V11.8262H12.3438C12.3821 11.8262 12.4166 11.8415 12.4472 11.8721C12.4779 11.9028 12.4932 11.9373 12.4932 11.9756V18.6416C12.4932 18.8791 12.5775 19.086 12.7461 19.2622C12.9223 19.4308 13.1292 19.515 13.3667 19.515H15.9641C16.2093 19.515 16.4162 19.4308 16.5848 19.2622C16.7533 19.086 16.8376 18.8791 16.8376 18.6416V11.9756C16.8376 11.9373 16.8529 11.9028 16.8836 11.8721C16.9142 11.8415 16.9487 11.8262 16.987 11.8262H17.918V18.5496C17.918 18.9021 17.8298 19.2277 17.6536 19.5265C17.4774 19.8254 17.2399 20.0629 16.941 20.2391C16.6422 20.4153 16.3166 20.5034 15.9641 20.5034H13.3667Z" fill="#874AAD"/>
<path d="M19.7161 20.4575C19.6778 20.4575 19.6433 20.4422 19.6126 20.4115C19.582 20.3809 19.5667 20.3464 19.5667 20.3081V11.8262H20.4976C20.5359 11.8262 20.5704 11.8415 20.601 11.8721C20.6317 11.9028 20.647 11.9373 20.647 11.9756V20.4575H19.7161Z" fill="#874AAD"/>
<path d="M24.1751 20.4575C23.8227 20.4575 23.4932 20.3694 23.1867 20.1931C22.8879 20.0092 22.6504 19.7679 22.4742 19.4691C22.2979 19.1626 22.2098 18.8293 22.2098 18.4692V11.9756C22.2098 11.9373 22.2251 11.9028 22.2558 11.8721C22.2864 11.8415 22.3209 11.8262 22.3592 11.8262H23.2902V18.5726C23.2902 18.8178 23.3744 19.0285 23.543 19.2047C23.7192 19.381 23.9299 19.4691 24.1751 19.4691H27.761C27.7993 19.4691 27.8338 19.4844 27.8644 19.515C27.8951 19.5457 27.9104 19.5802 27.9104 19.6185V20.4575H24.1751Z" fill="#874AAD"/>
<path d="M29.5214 20.4575C29.3375 20.4575 29.1804 20.3924 29.0502 20.2621C28.9199 20.1318 28.8548 19.9748 28.8548 19.7909V12.4928C28.8548 12.3089 28.9199 12.1518 29.0502 12.0216C29.1804 11.8913 29.3375 11.8262 29.5214 11.8262H33.2107C33.5631 11.8262 33.8888 11.9143 34.1876 12.0905C34.4864 12.2667 34.7239 12.5043 34.9001 12.8031C35.0764 13.1019 35.1645 13.4275 35.1645 13.78V18.5037C35.1645 18.8561 35.0764 19.1817 34.9001 19.4806C34.7239 19.7794 34.4864 20.0169 34.1876 20.1931C33.8888 20.3694 33.5631 20.4575 33.2107 20.4575H29.5214ZM33.2107 19.4691C33.4559 19.4691 33.6627 19.3848 33.8313 19.2162C33.9999 19.04 34.0841 18.8331 34.0841 18.5956V13.6881C34.0841 13.4429 33.9999 13.236 33.8313 13.0674C33.6627 12.8989 33.4559 12.8146 33.2107 12.8146H30.1535C30.0922 12.8146 30.0386 12.8376 29.9926 12.8835C29.9543 12.9218 29.9351 12.9716 29.9351 13.0329V19.2507C29.9351 19.312 29.9543 19.3656 29.9926 19.4116C30.0386 19.4499 30.0922 19.4691 30.1535 19.4691H33.2107Z" fill="#874AAD"/>
</svg>
