<svg width="64" height="64" viewBox="0 0 64 64" fill="none" xmlns="http://www.w3.org/2000/svg">
<path d="M35.7332 5.59011C31.3363 4.98828 26.8587 5.48449 22.7002 7.03445C18.5417 8.5844 14.8316 11.1399 11.9012 14.4728C9.39322 17.3613 7.53238 20.753 6.44368 24.4202C5.35498 28.0873 5.06364 31.945 5.58922 35.7341C7.00256 46.1181 14.8106 54.9528 25.0159 57.7234C27.2909 58.346 29.6386 58.6635 31.9972 58.6674L32.3759 58.6648C33.724 58.6474 35.0459 58.2897 36.2188 57.625C37.3918 56.9602 38.3777 56.0098 39.0852 54.8621C39.7951 53.7206 40.2047 52.4182 40.2761 51.0759C40.3474 49.7336 40.0781 48.3951 39.4932 47.1848L38.9626 46.0754C38.5544 45.278 38.3627 44.3874 38.4067 43.4926C38.4507 42.5979 38.7288 41.7303 39.2132 40.9768C39.9063 39.8509 40.9922 39.0219 42.261 38.65C43.5298 38.2782 44.8913 38.3898 46.0826 38.9634L47.1812 39.4888C48.2799 40.0168 49.4479 40.2861 50.6506 40.2861C52.7553 40.2753 54.7723 39.4415 56.2702 37.963C57.7682 36.4844 58.6283 34.4785 58.6666 32.3741C58.6996 29.8888 58.3827 27.4111 57.7252 25.0141C54.9519 14.8114 46.1172 7.00345 35.7332 5.59011V5.59011ZM49.4879 34.6808L48.3892 34.1554C43.5146 31.8141 37.5359 33.6274 34.6959 38.1394C32.7279 41.2754 32.5279 45.0088 34.1519 48.3848L34.6826 49.4941C34.8815 49.8971 34.9734 50.3445 34.9496 50.7932C34.9258 51.242 34.787 51.6771 34.5466 52.0568C34.3122 52.4446 33.9822 52.7658 33.5881 52.9895C33.194 53.2131 32.749 53.3318 32.2959 53.3341H31.9972C30.1099 53.3289 28.2316 53.0752 26.4106 52.5794C18.2426 50.3634 12.0026 43.3021 10.8746 35.0168C10.0186 28.7368 11.8132 22.6888 15.9226 17.9794C18.2605 15.2974 21.232 13.2425 24.5667 12.0018C27.9014 10.7611 31.4934 10.3739 35.0159 10.8754C43.3012 12.0034 50.3626 18.2461 52.5786 26.4114C53.1066 28.3581 53.3599 30.3421 53.3306 32.2968C53.2986 34.4488 51.0772 35.4514 49.4879 34.6808V34.6808Z" fill="white"/>
<path d="M20 42.666C22.2091 42.666 24 40.8752 24 38.666C24 36.4569 22.2091 34.666 20 34.666C17.7909 34.666 16 36.4569 16 38.666C16 40.8752 17.7909 42.666 20 42.666Z" fill="white"/>
<path d="M20 32C22.2091 32 24 30.2091 24 28C24 25.7909 22.2091 24 20 24C17.7909 24 16 25.7909 16 28C16 30.2091 17.7909 32 20 32Z" fill="white"/>
<path d="M28 24C30.2091 24 32 22.2091 32 20C32 17.7909 30.2091 16 28 16C25.7909 16 24 17.7909 24 20C24 22.2091 25.7909 24 28 24Z" fill="white"/>
<path d="M38.667 24C40.8761 24 42.667 22.2091 42.667 20C42.667 17.7909 40.8761 16 38.667 16C36.4579 16 34.667 17.7909 34.667 20C34.667 22.2091 36.4579 24 38.667 24Z" fill="white"/>
</svg>
