<svg width="64" height="67" viewBox="0 0 64 67" fill="none" xmlns="http://www.w3.org/2000/svg">
<g filter="url(#filter0_d_2520_3252)">
<path d="M8 55.9995H18.6667L53.3333 21.3328C54.7478 19.9183 55.5425 17.9999 55.5425 15.9995C55.5425 13.9991 54.7478 12.0807 53.3333 10.6662C51.9188 9.25168 50.0004 8.45703 48 8.45703C45.9996 8.45703 44.0812 9.25168 42.6667 10.6662L8 45.3328V55.9995Z" stroke="white" stroke-width="5" stroke-linecap="round" stroke-linejoin="round"/>
<path d="M38.667 14.666L49.3337 25.3327" stroke="white" stroke-width="5" stroke-linecap="round" stroke-linejoin="round"/>
<path d="M32 21.3333L18.6667 8L8 18.6667L21.3333 32" stroke="white" stroke-width="5" stroke-linecap="round" stroke-linejoin="round"/>
<path d="M18.667 21.334L14.667 25.334" stroke="white" stroke-width="5" stroke-linecap="round" stroke-linejoin="round"/>
<path d="M42.6667 32L56 45.3333L45.3333 56L32 42.6667" stroke="white" stroke-width="5" stroke-linecap="round" stroke-linejoin="round"/>
<path d="M42.667 45.334L38.667 49.334" stroke="white" stroke-width="5" stroke-linecap="round" stroke-linejoin="round"/>
</g>
<defs>
<filter id="filter0_d_2520_3252" x="-4" y="0" width="72" height="72" filterUnits="userSpaceOnUse" color-interpolation-filters="sRGB">
<feFlood flood-opacity="0" result="BackgroundImageFix"/>
<feColorMatrix in="SourceAlpha" type="matrix" values="0 0 0 0 0 0 0 0 0 0 0 0 0 0 0 0 0 0 127 0" result="hardAlpha"/>
<feOffset dy="4"/>
<feGaussianBlur stdDeviation="2"/>
<feComposite in2="hardAlpha" operator="out"/>
<feColorMatrix type="matrix" values="0 0 0 0 0 0 0 0 0 0 0 0 0 0 0 0 0 0 0.25 0"/>
<feBlend mode="normal" in2="BackgroundImageFix" result="effect1_dropShadow_2520_3252"/>
<feBlend mode="normal" in="SourceGraphic" in2="effect1_dropShadow_2520_3252" result="shape"/>
</filter>
</defs>
</svg>
