<svg width="64" height="64" viewBox="0 0 64 64" fill="none" xmlns="http://www.w3.org/2000/svg">
<path d="M44.2769 29.4606C45.901 26.6928 46.6024 23.4801 46.2795 20.2873C45.8022 15.5299 43.1462 11.3246 38.8049 8.44727L35.8582 12.8899C38.8422 14.8686 40.6582 17.6873 40.9729 20.8206C41.118 22.2769 40.9367 23.7472 40.4422 25.1246C39.9477 26.5019 39.1524 27.7518 38.1142 28.7833L34.9355 31.9619L39.2502 33.2286C50.5355 36.5353 50.6662 47.8846 50.6662 47.9993H55.9995C55.9995 43.2286 53.4502 33.9059 44.2769 29.4606Z" fill="#313131"/>
<path d="M25.333 31.9993C31.2157 31.9993 35.9997 27.2153 35.9997 21.3327C35.9997 15.45 31.2157 10.666 25.333 10.666C19.4503 10.666 14.6663 15.45 14.6663 21.3327C14.6663 27.2153 19.4503 31.9993 25.333 31.9993ZM25.333 15.9993C28.2743 15.9993 30.6663 18.3913 30.6663 21.3327C30.6663 24.274 28.2743 26.666 25.333 26.666C22.3917 26.666 19.9997 24.274 19.9997 21.3327C19.9997 18.3913 22.3917 15.9993 25.333 15.9993ZM29.333 34.666H21.333C12.509 34.666 5.33301 41.842 5.33301 50.666V53.3327H10.6663V50.666C10.6663 44.7833 15.4503 39.9993 21.333 39.9993H29.333C35.2157 39.9993 39.9997 44.7833 39.9997 50.666V53.3327H45.333V50.666C45.333 41.842 38.157 34.666 29.333 34.666Z" fill="#313131"/>
</svg>
