<svg width="32" height="32" viewBox="0 0 32 32" fill="none" xmlns="http://www.w3.org/2000/svg">
<path d="M17.8266 24.9394C20.1989 24.9394 22.3607 24.1337 23.998 22.6802L25.141 21.674L30.2898 26.6751L29.0641 27.8056C26.1185 30.5085 22.1163 32.001 17.8247 32.001C8.58924 32.001 1.6001 25.0637 1.6001 15.9007C1.6001 6.69874 8.42569 0.000976562 17.8247 0.000976562C22.0374 0.000976562 25.9981 1.49349 28.9814 4.15366L30.2503 5.28419L25.1804 10.2889L24.0394 9.31992C22.3607 7.86639 20.1576 7.09971 17.8266 7.09971C12.4748 7.09971 8.75653 10.7326 8.75653 15.9397C8.75653 21.1468 12.597 24.9394 17.8266 24.9394Z" fill="#874AAD"/>
<path d="M17.579 10.6533C19.0208 10.6533 20.4036 11.2189 21.4231 12.2257C22.4426 13.2326 23.0154 14.5981 23.0154 16.0219C23.0154 17.4458 22.4426 18.8113 21.4231 19.8181C20.4036 20.8249 19.0208 21.3905 17.579 21.3905C16.1372 21.3905 14.7544 20.8249 13.7349 19.8181C12.7153 18.8113 12.1426 17.4458 12.1426 16.0219C12.1426 14.5981 12.7153 13.2326 13.7349 12.2257C14.7544 11.2189 16.1372 10.6533 17.579 10.6533" fill="#FF3D2E"/>
</svg>
