<svg width="90" height="32" viewBox="0 0 90 32" fill="none" xmlns="http://www.w3.org/2000/svg">
<path d="M0.244629 0.531866H0.861943C2.49782 0.531866 7.97648 0.399144 10.0136 0.399144C22.3861 0.399144 27.3802 7.51368 27.3802 15.7348C27.3802 24.3988 21.4586 31.5565 9.65866 31.5565C8.02278 31.5565 3.95777 31.4685 0.997752 31.4685H0.244629V0.531866ZM7.31596 7.16182V24.8401C8.24501 24.9296 8.86233 24.9296 9.87781 24.9296C15.9784 24.9296 19.8675 21.6147 19.8675 15.7348C19.8675 10.0323 15.6698 7.02755 9.92411 7.02755C9.17253 7.02755 8.20026 7.02755 7.31596 7.16027V7.16182ZM45.4274 0.000976562C54.8414 0.000976562 61.8664 6.14325 61.8664 16.0002C61.8664 25.371 54.8383 32.001 45.4258 32.001C36.0118 32.001 28.9852 25.8587 28.9852 16.0002C28.9868 7.02755 35.5704 0.000976562 45.4274 0.000976562ZM45.4274 25.3695C51.3073 25.3695 54.3537 21.215 54.3537 15.9987C54.3537 10.341 50.4214 6.62784 45.4289 6.62784C40.3021 6.62784 36.501 10.341 36.501 15.9987C36.501 21.3045 40.4796 25.3695 45.4289 25.3695H45.4274ZM89.7551 18.6963C89.7551 28.1536 83.744 31.9994 77.1156 31.9994C69.1615 31.9994 63.6381 27.4467 63.6381 18.3877V0.531866H70.7094V16.8845C70.7094 21.7026 72.1648 25.3726 77.1141 25.3726C81.4013 25.3726 82.6822 22.2335 82.6822 17.2827V0.531866H89.7551V18.6963V18.6963Z" fill="#874AAD"/>
</svg>
