<svg width="32" height="32" viewBox="0 0 32 32" fill="none" xmlns="http://www.w3.org/2000/svg">
<g clip-path="url(#clip0)">
<path fill-rule="evenodd" clip-rule="evenodd" d="M22.2281 20.626L22.2281 20.6261H18.5L18.5 31.8066C26.149 30.6063 32 23.9871 32 16.001C32 7.16445 24.8366 0.00101471 16 0.00101471C7.16344 0.00101471 0 7.16445 0 16.001C0 23.9871 5.85097 30.6063 13.5 31.8066L13.5 20.6261H9.4375V20.626V16.0011V16.001H13.5L13.5 12.4761L13.5 12.476C13.5 12.2254 13.5093 11.9818 13.5277 11.7453C13.5829 11.0356 13.7196 10.3899 13.9305 9.81112C14.7738 7.49677 16.8026 6.25101 19.5434 6.25101C21.294 6.25101 23.125 6.56351 23.125 6.56351V10.501L23.125 10.5011H21.1074C19.6789 10.5011 18.9569 11.1382 18.6637 11.9664C18.549 12.2905 18.5 12.6438 18.5 12.9997C18.5 12.9997 18.5 12.9997 18.5 12.9997L18.5 16.001H22.9375L22.9375 16.0011L22.2281 20.626Z" fill="#874AAD"/>
</g>
<defs>
<clipPath id="clip0">
<rect width="32" height="32" fill="white" transform="translate(0 0.000976562)"/>
</clipPath>
</defs>
</svg>
