<svg width="32" height="32" viewBox="0 0 32 32" fill="none" xmlns="http://www.w3.org/2000/svg">
<path d="M15.9957 10.6654C13.0578 10.6654 10.6602 13.063 10.6602 16.001C10.6602 18.939 13.0578 21.3366 15.9957 21.3366C18.9336 21.3366 21.3312 18.939 21.3312 16.001C21.3312 13.063 18.9336 10.6654 15.9957 10.6654ZM31.9982 16.001C31.9982 13.7915 32.0182 11.602 31.8941 9.39651C31.7701 6.83478 31.1857 4.56125 29.3125 2.68798C27.4352 0.810713 25.1657 0.230321 22.604 0.106237C20.3946 -0.0178464 18.2052 0.00216714 15.9997 0.00216714C13.7902 0.00216714 11.6008 -0.0178464 9.39536 0.106237C6.83368 0.230321 4.56019 0.814716 2.68696 2.68798C0.809722 4.56525 0.22934 6.83478 0.105259 9.39651C-0.0188226 11.606 0.00119056 13.7955 0.00119056 16.001C0.00119056 18.2065 -0.0188226 20.3999 0.105259 22.6054C0.22934 25.1672 0.813725 27.4407 2.68696 29.314C4.56419 31.1912 6.83368 31.7716 9.39536 31.8957C11.6048 32.0198 13.7943 31.9998 15.9997 31.9998C18.2092 31.9998 20.3986 32.0198 22.604 31.8957C25.1657 31.7716 27.4392 31.1872 29.3125 29.314C31.1897 27.4367 31.7701 25.1672 31.8941 22.6054C32.0222 20.3999 31.9982 18.2105 31.9982 16.001V16.001ZM15.9957 24.2105C11.4527 24.2105 7.78631 20.544 7.78631 16.001C7.78631 11.4579 11.4527 7.79143 15.9957 7.79143C20.5387 7.79143 24.2051 11.4579 24.2051 16.001C24.2051 20.544 20.5387 24.2105 15.9957 24.2105ZM24.5413 9.3725C23.4806 9.3725 22.6241 8.51592 22.6241 7.4552C22.6241 6.39449 23.4806 5.53791 24.5413 5.53791C25.602 5.53791 26.4586 6.39449 26.4586 7.4552C26.4589 7.70707 26.4095 7.95653 26.3133 8.18929C26.217 8.42205 26.0758 8.63354 25.8977 8.81164C25.7196 8.98974 25.5081 9.13096 25.2754 9.2272C25.0426 9.32344 24.7932 9.37281 24.5413 9.3725V9.3725Z" fill="#874AAD"/>
</svg>
