<svg width="40" height="40" viewBox="0 0 40 40" fill="none" xmlns="http://www.w3.org/2000/svg">
<path fill-rule="evenodd" clip-rule="evenodd" d="M12.9461 12.1623C12.7297 11.9459 12.3788 11.9459 12.1623 12.1623C11.9459 12.3788 11.9459 12.7297 12.1623 12.9461L19.2165 20.0002L12.1625 27.0542C11.9461 27.2706 11.9461 27.6215 12.1625 27.8379C12.379 28.0544 12.7299 28.0544 12.9463 27.8379L20.0002 20.784L27.0539 27.8377C27.2703 28.0541 27.6212 28.0541 27.8377 27.8377C28.0541 27.6212 28.0541 27.2703 27.8377 27.0539L20.784 20.0002L27.8379 12.9464C28.0543 12.7299 28.0543 12.379 27.8379 12.1626C27.6215 11.9462 27.2706 11.9462 27.0541 12.1626L20.0002 19.2165L12.9461 12.1623Z" fill="#ffffff"/>
</svg>
