<svg width="36" height="50" viewBox="0 0 36 50" fill="none" xmlns="http://www.w3.org/2000/svg"><path d="M14.1005 42.1429L5.84516 37.9624C2.26345 36.1481 0 32.4362 0 28.3792V7.14394H14.1005V1.78661L17.6275 0L21.152 1.78661V7.14394H35.2525V28.3792C35.2525 32.4388 32.9891 36.1481 29.4074 37.9624L21.152 42.1429V48.2134L17.6275 50L14.103 48.2134V42.1429H14.1005Z" fill="#951B81"></path><path d="M21.152 7.14394V1.78661L17.6275 0L14.1005 1.78661V7.14394H0V28.3792C0 32.4388 2.26345 36.1481 5.84516 37.9624L14.1005 42.1429V48.2134L17.625 50L21.1495 48.2134V42.1429L29.4049 37.9624C32.9891 36.1481 35.2501 32.4362 35.2501 28.3792V7.14394H21.152ZM31.728 28.3792C31.728 31.1032 30.2357 33.55 27.8304 34.7672L17.6275 39.9355L7.4246 34.7672C5.01938 33.55 3.527 31.1007 3.527 28.3792V10.7146H31.7305V28.3792H31.728Z" fill="url(#paint0_linear)"></path><path d="M3.52441 10.7146V28.3792C3.52441 31.1032 5.0168 33.55 7.42202 34.7671L17.6249 39.9354L27.8279 34.7671C30.2331 33.55 31.7255 31.1007 31.7255 28.3792V10.7146H17.6274H3.52441Z" fill="url(#paint1_linear)"></path><path d="M7.05176 14.2854V28.5078C7.05176 29.8609 7.80541 31.0982 8.99932 31.703L14.1008 34.2884V21.4293H21.1523V34.2859L26.2537 31.7005C27.4476 31.0957 28.2013 29.8584 28.2013 28.5052V14.2854H7.05176Z" fill="url(#paint2_linear)"></path><path d="M20.9756 34.5757V21.6082H14.2773V34.5757L8.91961 31.8617C7.65855 31.2217 6.87256 29.9365 6.87256 28.5077V14.1064H28.3778V28.5077C28.3778 29.9365 27.5943 31.2217 26.3307 31.8617L20.9756 34.5757ZM13.9241 21.2504H21.3263V33.9986L26.174 31.5442C27.3157 30.9671 28.0246 29.8029 28.0246 28.5102V14.4643H7.22576V28.5077C7.22576 29.8004 7.93464 30.9646 9.07631 31.5417L13.9241 33.9961V21.2504Z" fill="#7E221F"></path><path d="M14.1001 1.78661L17.6271 0V10.7146L14.1001 7.14394V1.78661Z" fill="#D6C6D9"></path><path d="M3.52451 10.7146L0 7.14392H14.1005L17.6275 10.7146H3.52451Z" fill="white"></path><defs><linearGradient id="paint0_linear" x1="2.20333" y1="36.1617" x2="33.4515" y2="5.3178" gradientUnits="userSpaceOnUse"><stop stop-color="#D6C6D9"></stop><stop offset="0.2401" stop-color="#D7C8DA"></stop><stop offset="0.3266" stop-color="#DDCFE0"></stop><stop offset="0.3883" stop-color="#E6DCE9"></stop><stop offset="0.4378" stop-color="#F4EFF5"></stop><stop offset="0.4664" stop-color="white"></stop></linearGradient><linearGradient id="paint1_linear" x1="29.7678" y1="8.72889" x2="5.16882" y2="33.0096" gradientUnits="userSpaceOnUse"><stop stop-color="#D6C4D8"></stop><stop offset="0.3095" stop-color="#D7C6D9"></stop><stop offset="0.421" stop-color="#DCCEDE"></stop><stop offset="0.5005" stop-color="#E5DAE7"></stop><stop offset="0.5643" stop-color="#F2EDF3"></stop><stop offset="0.6071" stop-color="white"></stop></linearGradient><linearGradient id="paint2_linear" x1="8.46432" y1="31.4193" x2="27.0279" y2="13.0959" gradientUnits="userSpaceOnUse"><stop offset="0.00291489" stop-color="#F39200"></stop><stop offset="0.3" stop-color="#FBBA00"></stop><stop offset="1" stop-color="#FFDD00"></stop></linearGradient></defs></svg>