<?xml version="1.0" encoding="UTF-8"?> <!-- Creator: CorelDRAW 2018 (64-Bit) --> <svg xmlns="http://www.w3.org/2000/svg" xmlns:xlink="http://www.w3.org/1999/xlink" xml:space="preserve" width="171.617mm" height="70mm" style="shape-rendering:geometricPrecision; text-rendering:geometricPrecision; image-rendering:optimizeQuality; fill-rule:evenodd; clip-rule:evenodd" viewBox="0 0 17925.6 7311.6"> <defs> <style type="text/css"> <![CDATA[ .str0 {stroke:#7F2E2C;stroke-width:52.22;stroke-miterlimit:10} .fil7 {fill:none;fill-rule:nonzero} .fil0 {fill:#FEFEFE;fill-rule:nonzero} .fil1 {fill:#FFCE00;fill-rule:nonzero} .fil8 {fill:#D5C6D9;fill-rule:nonzero} .fil2 {fill:#962983;fill-rule:nonzero} .fil3 {fill:#762468;fill-rule:nonzero} .fil5 {fill:url(#id0)} .fil4 {fill:url(#id1)} .fil6 {fill:url(#id2)} ]]> </style> <linearGradient id="id0" gradientUnits="userSpaceOnUse" x1="4409.98" y1="1276.42" x2="812.61" y2="4873.79"> <stop offset="0" style="stop-opacity:1; stop-color:#D5C4D7"></stop> <stop offset="0.588235" style="stop-opacity:1; stop-color:#E9E1EA"></stop> <stop offset="0.611765" style="stop-opacity:1; stop-color:#FEFEFE"></stop> <stop offset="1" style="stop-opacity:1; stop-color:#FEFEFE"></stop> </linearGradient> <linearGradient id="id1" gradientUnits="userSpaceOnUse" x1="326.42" y1="5287.85" x2="4896.17" y2="718.1"> <stop offset="0" style="stop-opacity:1; stop-color:#D5C6D9"></stop> <stop offset="0.454902" style="stop-opacity:1; stop-color:#E9E2EB"></stop> <stop offset="0.470588" style="stop-opacity:1; stop-color:#FEFEFE"></stop> <stop offset="1" style="stop-opacity:1; stop-color:#FEFEFE"></stop> </linearGradient> <linearGradient id="id2" gradientUnits="userSpaceOnUse" x1="1253.92" y1="4594.38" x2="3968.67" y2="1879.64"> <stop offset="0" style="stop-opacity:1; stop-color:#F39314"></stop> <stop offset="0" style="stop-opacity:1; stop-color:#F39314"></stop> <stop offset="0.301961" style="stop-opacity:1; stop-color:#FBBA00"></stop> <stop offset="1" style="stop-opacity:1; stop-color:#FFDD00"></stop> <stop offset="1" style="stop-opacity:1; stop-color:#FFDD00"></stop> </linearGradient> </defs> <g id="Layer_x0020_1"> <metadata id="CorelCorpID_0Corel-Layer"></metadata> <path class="fil0" d="M8203.08 1046.76l0 1357.99c0,115.38 -93.53,208.89 -208.89,208.89l-182.84 0 0 -1192.15 -630.18 0 0 1192.15 -182.8 0c-115.38,0 -208.89,-93.52 -208.89,-208.89l0 -1357.99 1413.6 0z"></path> <path class="fil0" d="M9261.08 1404.37c-221.43,0 -391.7,170.35 -391.7,425.82 0,255.51 170.28,425.79 391.7,425.79 221.42,0 391.72,-170.28 391.72,-425.79 0,-255.47 -170.31,-425.82 -391.72,-425.82zm-783.47 425.82c0,-459.87 340.63,-800.45 732.39,-800.45 272.49,0 442.8,170.35 442.8,170.35l68.1 -153.32 289.55 0 0 1566.9 -121.78 0c-102,0 -194.45,-60.1 -235.87,-153.32 0,0 -170.31,170.34 -442.8,170.34 -391.77,0 -732.39,-340.58 -732.39,-800.48z"></path> <path class="fil0" d="M11784.49 1046.76l0 1357.99c0,115.38 -93.56,208.89 -208.89,208.89l-182.84 0 0 -1192.15 -630.18 0 0 1192.15 -182.8 0c-115.41,0 -208.92,-93.52 -208.92,-208.89l0 -1357.99 1413.64 0z"></path> <path class="fil0" d="M12842.47 1404.37c-221.42,0 -391.69,170.35 -391.69,425.82 0,255.51 170.28,425.79 391.69,425.79 221.43,0 391.73,-170.28 391.73,-425.79 0,-255.47 -170.31,-425.82 -391.73,-425.82zm-783.43 425.82c0,-459.87 340.63,-800.45 732.36,-800.45 272.49,0 442.8,170.35 442.8,170.35l68.1 -153.32 289.55 0 0 1566.9 -121.79 0c-101.99,0 -194.45,-60.1 -235.86,-153.32 0,0 -170.31,170.34 -442.8,170.34 -391.73,0 -732.36,-340.58 -732.36,-800.48z"></path> <path class="fil1" d="M10785.6 3377.91l0 1358c0,115.34 -93.53,208.85 -208.89,208.85l-182.84 0 0 -987.83 -664.23 987.83 -374.67 0 0 -1357.96c0,-115.38 93.52,-208.89 208.89,-208.89l182.8 0 0 987.79 664.23 -987.79 374.71 0z"></path> <path class="fil1" d="M12559.66 3377.91l0 1358c0,115.34 -93.53,208.85 -208.89,208.85l-182.84 0 0 -613.12 -630.18 0 0 613.12 -182.81 0c-115.37,0 -208.89,-93.52 -208.89,-208.85l0 -1358 391.7 0 0 579.03 630.18 0 0 -579.03 391.73 0z"></path> <path class="fil1" d="M13617.65 3735.52c-221.43,0 -391.7,170.32 -391.7,425.82 0,255.51 170.28,425.74 391.7,425.74 221.42,0 391.72,-170.23 391.72,-425.74 0,-255.5 -170.31,-425.82 -391.72,-425.82zm-783.47 425.82c0,-459.86 340.63,-800.45 732.39,-800.45 272.49,0 442.8,170.32 442.8,170.32l68.1 -153.29 289.55 0 0 1566.85 -121.78 0c-102,0 -194.45,-60.06 -235.87,-153.28 0,0 -170.31,170.35 -442.8,170.35 -391.77,0 -732.39,-340.58 -732.39,-800.49z"></path> <path class="fil1" d="M16141.04 3377.91l0 1358c0,115.34 -93.52,208.85 -208.89,208.85l-182.83 0 0 -613.12 -630.19 0 0 613.12 -182.8 0c-115.37,0 -208.89,-93.52 -208.89,-208.85l0 -1358 391.69 0 0 579.03 630.19 0 0 -579.03 391.72 0z"></path> <path class="fil1" d="M17925.6 4365.68c-68.13,306.62 -357.65,596.17 -732.36,596.17 -425.82,0 -783.47,-357.73 -783.47,-800.53 0,-442.8 357.65,-800.45 783.47,-800.45 374.71,0 664.23,289.52 732.36,596.05l-391.73 0c0,0 -85.16,-221.42 -340.63,-221.42 -221.42,0 -391.69,170.35 -391.69,425.82 0,255.54 170.28,425.78 391.69,425.78 255.47,0 340.63,-221.42 340.63,-221.42l391.73 0z"></path> <path class="fil1" d="M8339.34 4587.09c-146.47,0 -255.47,-102.14 -255.47,-102.14l0 -647.2c0,0 102.17,-102.22 255.47,-102.22 187.33,0 340.62,153.29 340.62,425.79 0,272.57 -153.28,425.78 -340.62,425.78zm-647.2 -102.14c0,0 -109,102.14 -255.47,102.14 -187.38,0 -340.63,-153.21 -340.63,-425.78 0,-272.49 153.25,-425.79 340.63,-425.79 153.28,0 255.47,102.22 255.47,102.22l0 647.2zm715.34 -1124.05c-187.34,0 -323.6,102.14 -323.6,102.14l-0.04 -209.62 -195.85 -97.94 -195.82 97.94 -0.03 209.62c0,0 -136.27,-102.14 -323.6,-102.14 -357.65,0 -664.26,306.51 -664.26,800.42 0,493.98 306.61,800.53 664.26,800.53 187.33,0 323.6,-102.18 323.6,-102.18l0.03 522.65 195.82 97.91 195.85 -97.91 0.04 -522.65c0,0 136.26,102.18 323.6,102.18 357.64,0 664.22,-306.54 664.22,-800.53 0,-493.91 -306.58,-800.42 -664.22,-800.42z"></path> <path class="fil2" d="M2141.27 7018.21l0 -887.86 -1251.81 -625.9c-516.43,-258.19 -837.23,-777.26 -837.23,-1354.64l0 -3053.05 2089.04 0 0 -803.33 470.03 -235.02 470 235.02 0 803.33 2089.03 0 0 3053.05c0,577.38 -320.76,1096.45 -837.19,1354.64l-1251.84 625.9 0 887.86 -470 234.98 -470.03 -234.98z"></path> <path class="fil3" d="M2611.31 0l-522.25 261.15 0 783.39 -2089.04 0 0 3105.27c0,593.44 335.28,1135.95 866.08,1401.34l1222.96 611.49 0 887.86 522.25 261.11 522.25 -261.11 0 -887.86 1222.92 -611.49c530.83,-265.39 866.11,-807.9 866.11,-1401.34l0 -3105.27 -2089.03 0 0 -783.39 -522.25 -261.15zm0 116.78l417.78 208.92 0 718.83 0 104.43 104.46 0 1984.57 0 0 3000.84c0,557.44 -309.75,1058.65 -808.34,1307.93l-1222.95 611.49 -57.74 28.85 0 64.56 0 823.3 -417.78 208.89 -417.83 -208.89 0 -823.3 0 -64.56 -57.74 -28.85 -1222.92 -611.49c-498.63,-249.28 -808.37,-750.49 -808.37,-1307.93l0 -3000.84 1984.61 0 104.42 0 0 -104.43 0 -718.83 417.83 -208.92z"></path> <path class="fil4" d="M-0 1044.55l0 3105.27c0,593.48 335.29,1135.96 866.12,1401.34l0 0 1222.92 611.49 0 887.86 522.25 261.07 522.25 -261.07 0 -887.86 1222.99 -611.49c530.76,-265.38 866.04,-807.86 866.04,-1401.34l0 0 0 -3105.27 -2089.03 0 0 -783.39 -522.25 -261.15 -522.25 261.15 0 783.39 -2089.04 0zm1099.66 4039.51c-356.14,-178.08 -577.41,-536.07 -577.41,-934.24l0 0 0 -2583.05 4178.06 0 0 2583.05c0,398.18 -221.27,756.17 -577.41,934.24l0 0 -1511.62 755.8 -1511.62 -755.8z"></path> <path class="fil5" d="M4700.31 4149.81l0 -2583.05 -2089.03 0 -2089.03 0 0 2583.05c0,398.18 221.27,756.17 577.41,934.24l0 0 1511.62 755.8 1511.62 -755.8c356.14,-178.08 577.41,-536.07 577.41,-934.24z"></path> <path class="fil6" d="M1044.54 2089.05l0 2079.6c0,197.84 111.76,378.65 288.67,467.09l0 0 755.83 377.92 0 -1880.1 1044.49 0 0 1880.1 755.83 -377.92c176.94,-88.44 288.7,-269.24 288.7,-467.09l0 0 0 -2079.6 -3133.53 0z"></path> <path class="fil7 str0" d="M1044.52 2089.05l0 2079.6c0,197.84 111.75,378.66 288.7,467.09l755.83 377.92 0 -1880.1 1044.49 0 0 1880.1 755.83 -377.92c176.91,-88.43 288.7,-269.24 288.7,-467.09l0 -2079.6 -3133.56 0z"></path> <polygon class="fil8" points="2089.04,261.14 2611.3,0 2611.3,1566.78 2089.04,1044.54 "></polygon> <polygon class="fil0" points="522.28,1566.77 0.03,1044.52 2089.06,1044.52 2611.27,1566.77 "></polygon> </g> </svg> 